<svg id="Layer_1" data-name="Layer 1" xmlns="http://www.w3.org/2000/svg" viewBox="0 0 784.22 673.45"><defs><style>.cls-1{fill:#247ea1;}.cls-2{fill:#dc2a0b;}.cls-3{fill:#fff;}.cls-4{fill:#008643;}.cls-5{fill:#1a3461;}.cls-6{fill:#a8d1e7;}.cls-10,.cls-11,.cls-7,.cls-8{fill:none;}.cls-7{stroke:#000;}.cls-11,.cls-7,.cls-8{stroke-linecap:round;stroke-linejoin:round;}.cls-11,.cls-7{stroke-width:2px;}.cls-10,.cls-8{stroke:#073642;stroke-width:3px;}.cls-9{fill:#073642;}.cls-10{stroke-miterlimit:10;}.cls-11{stroke:#fff;}</style></defs><title>dochub_arch</title><rect class="cls-1" x="95.5" y="134.02" width="333" height="107"/><rect class="cls-2" x="23.5" y="286.02" width="194" height="73"/><path class="cls-3" d="M58.3,331l3.07-18.1H66l3.62,9.65,3.6-9.65H77.9L81,331H76.3l-1.56-10.42L70.46,331H68.59l-4.06-10.42L63,331Z"/><path class="cls-3" d="M83.06,324.74a6,6,0,0,1,.55-2.56,6.27,6.27,0,0,1,1.54-2.06,7.3,7.3,0,0,1,2.34-1.38,8.44,8.44,0,0,1,3-.5,8.58,8.58,0,0,1,2.94.49,7.28,7.28,0,0,1,2.35,1.37,6.15,6.15,0,0,1,1.55,2.09,6.39,6.39,0,0,1,.55,2.68,6.28,6.28,0,0,1-.56,2.68,6.36,6.36,0,0,1-1.55,2.09A6.93,6.93,0,0,1,93.37,331a9,9,0,0,1-3,.48,8.64,8.64,0,0,1-2.93-.48,6.73,6.73,0,0,1-2.32-1.37,6.34,6.34,0,0,1-1.52-2.12A6.66,6.66,0,0,1,83.06,324.74Zm4.58,0a2.79,2.79,0,0,0,.23,1.14,3.05,3.05,0,0,0,.6.9,2.65,2.65,0,0,0,.89.6,2.87,2.87,0,0,0,2.18,0,2.65,2.65,0,0,0,.89-.6,3.06,3.06,0,0,0,.6-.9,2.73,2.73,0,0,0,.23-1.12,2.67,2.67,0,0,0-.23-1.09,3.08,3.08,0,0,0-.6-.9,2.64,2.64,0,0,0-.89-.6,2.87,2.87,0,0,0-2.18,0,2.63,2.63,0,0,0-.89.6,3.11,3.11,0,0,0-.6.89A2.59,2.59,0,0,0,87.65,324.79Z"/><path class="cls-3" d="M100.34,318.7h4.34v1.56a4.75,4.75,0,0,1,1.8-1.45,5.63,5.63,0,0,1,2.14-.37,5.35,5.35,0,0,1,2.22.42,4.43,4.43,0,0,1,1.57,1.19,3.42,3.42,0,0,1,.72,1.39,7.25,7.25,0,0,1,.19,1.75V331H109v-6.22a6.7,6.7,0,0,0-.13-1.48,1.83,1.83,0,0,0-.47-.9,1.64,1.64,0,0,0-.65-.41,2.41,2.41,0,0,0-.77-.12,2.15,2.15,0,0,0-1.69.66,2.74,2.74,0,0,0-.59,1.88V331h-4.34Z"/><path class="cls-3" d="M130.06,318.7v11.47a12.85,12.85,0,0,1-.12,1.85,8,8,0,0,1-.34,1.44,4.54,4.54,0,0,1-.9,1.48,6.06,6.06,0,0,1-1.48,1.19,7.77,7.77,0,0,1-2,.79,9.86,9.86,0,0,1-5-.07,7.2,7.2,0,0,1-2.1-1,5.8,5.8,0,0,1-1.48-1.49,4.94,4.94,0,0,1-.77-1.86h4.9a2,2,0,0,0,2.06,1.22A2.76,2.76,0,0,0,125,333a3,3,0,0,0,.73-2.14v-1.18a7.34,7.34,0,0,1-.92.76,5.25,5.25,0,0,1-.9.49,4.26,4.26,0,0,1-1,.28,6.67,6.67,0,0,1-1.1.08,6.29,6.29,0,0,1-2.42-.46,5.6,5.6,0,0,1-3.16-3.23,6.91,6.91,0,0,1-.44-2.53,7.08,7.08,0,0,1,.48-2.63,6.77,6.77,0,0,1,1.31-2.11,6,6,0,0,1,2-1.42,5.94,5.94,0,0,1,2.48-.52,4.77,4.77,0,0,1,3.67,1.63v-1.3Zm-9.74,6.1a2.87,2.87,0,0,0,.8,2,2.63,2.63,0,0,0,.89.6,2.85,2.85,0,0,0,1.12.22,2.79,2.79,0,0,0,1.09-.22,2.64,2.64,0,0,0,.89-.6,3.06,3.06,0,0,0,.6-.9,2.76,2.76,0,0,0,0-2.2,3,3,0,0,0-.61-.89,2.77,2.77,0,0,0-.9-.6,2.73,2.73,0,0,0-1.07-.22,2.6,2.6,0,0,0-1.08.23,3.11,3.11,0,0,0-.89.6,2.83,2.83,0,0,0-.61.88A2.58,2.58,0,0,0,120.31,324.79Z"/><path class="cls-3" d="M132.53,324.74a6,6,0,0,1,.55-2.56,6.27,6.27,0,0,1,1.54-2.06,7.3,7.3,0,0,1,2.34-1.38,8.44,8.44,0,0,1,3-.5,8.58,8.58,0,0,1,2.94.49,7.28,7.28,0,0,1,2.35,1.37,6.15,6.15,0,0,1,1.55,2.09,6.39,6.39,0,0,1,.55,2.68,6.28,6.28,0,0,1-.56,2.68,6.36,6.36,0,0,1-1.55,2.09,6.93,6.93,0,0,1-2.36,1.36,9,9,0,0,1-3,.48,8.64,8.64,0,0,1-2.93-.48,6.73,6.73,0,0,1-2.32-1.37,6.34,6.34,0,0,1-1.52-2.12A6.66,6.66,0,0,1,132.53,324.74Zm4.58,0a2.79,2.79,0,0,0,.23,1.14,3.05,3.05,0,0,0,.6.9,2.65,2.65,0,0,0,.89.6,2.87,2.87,0,0,0,2.18,0,2.65,2.65,0,0,0,.89-.6,3.06,3.06,0,0,0,.6-.9,2.73,2.73,0,0,0,.23-1.12,2.67,2.67,0,0,0-.23-1.09,3.08,3.08,0,0,0-.6-.9,2.64,2.64,0,0,0-.89-.6,2.87,2.87,0,0,0-2.18,0,2.63,2.63,0,0,0-.89.6,3.11,3.11,0,0,0-.6.89A2.59,2.59,0,0,0,137.11,324.79Z"/><path class="cls-3" d="M150.22,312.91h7a8.23,8.23,0,0,1,3.47.74,9.46,9.46,0,0,1,2.83,2,9.2,9.2,0,0,1,1.91,2.88,8.88,8.88,0,0,1,0,6.86,9.17,9.17,0,0,1-1.9,2.89,9.35,9.35,0,0,1-2.83,2,8.27,8.27,0,0,1-3.49.74h-7Zm4.7,14.11H156a5.84,5.84,0,0,0,2.18-.38,4.67,4.67,0,0,0,1.62-1.06,4.53,4.53,0,0,0,1-1.6,5.72,5.72,0,0,0,.35-2,5.56,5.56,0,0,0-.36-2,4.52,4.52,0,0,0-2.64-2.66,5.78,5.78,0,0,0-2.16-.38h-1.08Z"/><path class="cls-3" d="M169.08,312.91h7a5.39,5.39,0,0,1,3.79,1.2,4.48,4.48,0,0,1,1.3,3.46,4.7,4.7,0,0,1-.49,2.27,4.14,4.14,0,0,1-1.5,1.52,5.72,5.72,0,0,1,1.72.59,3.73,3.73,0,0,1,1.15,1,3.63,3.63,0,0,1,.64,1.3,5.94,5.94,0,0,1,.19,1.54,5.44,5.44,0,0,1-.44,2.26,4.57,4.57,0,0,1-1.25,1.66,5.34,5.34,0,0,1-2,1,9.26,9.26,0,0,1-2.59.34h-7.56Zm4.7,7.1h.86q2.21,0,2.21-1.75t-2.21-1.75h-.86Zm0,7.34h1a5.24,5.24,0,0,0,2.54-.46,1.78,1.78,0,0,0,0-2.93,5.25,5.25,0,0,0-2.54-.46h-1Z"/><rect class="cls-2" x="293.5" y="286.02" width="194" height="73"/><path class="cls-3" d="M321.24,316.9h-5.59v3h5.28v4h-5.28V327h5.59v4h-10.3v-18.1h10.3Z"/><path class="cls-3" d="M328.56,311.09V331h-4.34V311.09Z"/><path class="cls-3" d="M341,318.7h4.37V331H341v-1.37a4.56,4.56,0,0,1-3.77,1.75,6.11,6.11,0,0,1-2.47-.49,6,6,0,0,1-2-1.38,6.37,6.37,0,0,1-1.31-2.09,7.15,7.15,0,0,1-.47-2.62,6.94,6.94,0,0,1,.46-2.51,6.43,6.43,0,0,1,1.27-2.08,6,6,0,0,1,1.94-1.4,5.93,5.93,0,0,1,2.5-.52,5,5,0,0,1,3.82,1.61Zm-5.47,6.12a2.88,2.88,0,0,0,.8,2,2.65,2.65,0,0,0,.89.6,2.87,2.87,0,0,0,1.12.22,2.81,2.81,0,0,0,1.09-.22,2.65,2.65,0,0,0,.89-.6,3.11,3.11,0,0,0,.6-.89,2.6,2.6,0,0,0,.23-1.08,2.68,2.68,0,0,0-.23-1.09,3.08,3.08,0,0,0-.6-.9,2.66,2.66,0,0,0-.89-.6,2.81,2.81,0,0,0-1.09-.22,2.87,2.87,0,0,0-1.12.22,2.66,2.66,0,0,0-.89.6,3,3,0,0,0-.59.88A2.62,2.62,0,0,0,335.57,324.82Z"/><path class="cls-3" d="M356.52,321.86a5.08,5.08,0,0,0-2.35-.62,1.76,1.76,0,0,0-1,.24.74.74,0,0,0-.37.65.85.85,0,0,0,.06.35.62.62,0,0,0,.26.25,2.27,2.27,0,0,0,.6.22l1,.24a5,5,0,0,1,2.69,1.28,3.27,3.27,0,0,1,.89,2.36,4.3,4.3,0,0,1-.43,1.94,4.13,4.13,0,0,1-1.2,1.45,5.69,5.69,0,0,1-1.85.91,8.25,8.25,0,0,1-2.38.32,9.65,9.65,0,0,1-4.92-1.42l1.58-3.07a6.19,6.19,0,0,0,3.46,1.25,1.7,1.7,0,0,0,1-.26.79.79,0,0,0,.38-.67,1.14,1.14,0,0,0-.06-.4.65.65,0,0,0-.25-.29,2,2,0,0,0-.56-.24q-.37-.11-1-.23a5.57,5.57,0,0,1-2.82-1.21,3,3,0,0,1-.8-2.22,4.37,4.37,0,0,1,.38-1.86,3.85,3.85,0,0,1,1.1-1.4,5.19,5.19,0,0,1,1.74-.89,7.74,7.74,0,0,1,2.27-.31,10.31,10.31,0,0,1,4,.79Z"/><path class="cls-3" d="M365.76,322.32V331h-4.34v-8.69H360V318.7h1.44V315h4.34v3.7h2.47v3.62Z"/><path class="cls-3" d="M369.91,314a2.36,2.36,0,0,1,.19-.95,2.49,2.49,0,0,1,1.31-1.31,2.43,2.43,0,0,1,1.9,0,2.49,2.49,0,0,1,1.31,1.31,2.44,2.44,0,0,1,0,1.9,2.49,2.49,0,0,1-1.31,1.31,2.43,2.43,0,0,1-1.9,0,2.49,2.49,0,0,1-1.31-1.31A2.36,2.36,0,0,1,369.91,314Zm4.63,4.73V331H370.2V318.7Z"/><path class="cls-3" d="M386.81,322.68a4,4,0,0,0-2.28-.77,3.1,3.1,0,0,0-1.16.22,2.88,2.88,0,0,0-.95.61,2.8,2.8,0,0,0-.64.94,3.08,3.08,0,0,0-.23,1.21,3,3,0,0,0,.23,1.19,2.9,2.9,0,0,0,.62.94,2.74,2.74,0,0,0,.95.61,3.2,3.2,0,0,0,1.18.22,3.6,3.6,0,0,0,2.28-.84v3.7a7.69,7.69,0,0,1-3,.7,7.2,7.2,0,0,1-2.56-.46,6.4,6.4,0,0,1-3.61-3.35,6.22,6.22,0,0,1-.55-2.65,6.62,6.62,0,0,1,.53-2.68,6.41,6.41,0,0,1,1.44-2.09,6.52,6.52,0,0,1,2.17-1.37,7.35,7.35,0,0,1,2.7-.49,6.47,6.47,0,0,1,2.93.67Z"/><path class="cls-3" d="M397.44,321.86a5.08,5.08,0,0,0-2.35-.62,1.76,1.76,0,0,0-1,.24.74.74,0,0,0-.37.65.85.85,0,0,0,.06.35.62.62,0,0,0,.26.25,2.27,2.27,0,0,0,.6.22l1,.24a5,5,0,0,1,2.69,1.28,3.27,3.27,0,0,1,.89,2.36,4.3,4.3,0,0,1-.43,1.94,4.13,4.13,0,0,1-1.2,1.45,5.69,5.69,0,0,1-1.85.91,8.25,8.25,0,0,1-2.38.32,9.65,9.65,0,0,1-4.92-1.42l1.58-3.07a6.19,6.19,0,0,0,3.46,1.25,1.7,1.7,0,0,0,1-.26.79.79,0,0,0,.38-.67,1.14,1.14,0,0,0-.06-.4.65.65,0,0,0-.25-.29,2,2,0,0,0-.56-.24q-.37-.11-1-.23a5.57,5.57,0,0,1-2.82-1.21,3,3,0,0,1-.8-2.22,4.37,4.37,0,0,1,.38-1.86,3.85,3.85,0,0,1,1.1-1.4,5.19,5.19,0,0,1,1.74-.89,7.74,7.74,0,0,1,2.27-.31,10.31,10.31,0,0,1,4,.79Z"/><path class="cls-3" d="M405.41,325.58q0,2.81,2.64,2.81a2.36,2.36,0,0,0,2.14-1.15h4.2q-1.27,4.22-6.36,4.22a8.34,8.34,0,0,1-2.86-.47,6.35,6.35,0,0,1-2.22-1.33,5.93,5.93,0,0,1-1.43-2.06,6.88,6.88,0,0,1-.5-2.69,7.6,7.6,0,0,1,.48-2.77,5.8,5.8,0,0,1,1.37-2.1,6,6,0,0,1,2.15-1.33,8.11,8.11,0,0,1,2.84-.47,7.94,7.94,0,0,1,2.81.47,5.68,5.68,0,0,1,2.11,1.36,5.89,5.89,0,0,1,1.32,2.17,8.62,8.62,0,0,1,.46,2.89v.46Zm5.09-2.52a2.62,2.62,0,0,0-.89-1.46,2.76,2.76,0,0,0-3.28,0,2.39,2.39,0,0,0-.8,1.49Z"/><path class="cls-3" d="M426.53,318.7h4.37V331h-4.37v-1.37a4.56,4.56,0,0,1-3.77,1.75,6.11,6.11,0,0,1-2.47-.49,6,6,0,0,1-2-1.38,6.37,6.37,0,0,1-1.31-2.09,7.15,7.15,0,0,1-.47-2.62,6.94,6.94,0,0,1,.46-2.51,6.43,6.43,0,0,1,1.27-2.08,6,6,0,0,1,1.94-1.4,5.93,5.93,0,0,1,2.5-.52,5,5,0,0,1,3.82,1.61Zm-5.47,6.12a2.88,2.88,0,0,0,.8,2,2.65,2.65,0,0,0,.89.6,2.87,2.87,0,0,0,1.12.22,2.81,2.81,0,0,0,1.09-.22,2.65,2.65,0,0,0,.89-.6,3.11,3.11,0,0,0,.6-.89,2.6,2.6,0,0,0,.23-1.08,2.68,2.68,0,0,0-.23-1.09,3.08,3.08,0,0,0-.6-.9,2.66,2.66,0,0,0-.89-.6,2.81,2.81,0,0,0-1.09-.22,2.87,2.87,0,0,0-1.12.22,2.66,2.66,0,0,0-.89.6,3,3,0,0,0-.59.88A2.62,2.62,0,0,0,421.05,324.82Z"/><path class="cls-3" d="M433.85,318.7h4.34v2a5,5,0,0,1,1.7-1.69,4.59,4.59,0,0,1,2.35-.59h.37a2.63,2.63,0,0,1,.47,0v4.15a4.12,4.12,0,0,0-1.87-.43,2.8,2.8,0,0,0-2.27.9,4,4,0,0,0-.76,2.63V331h-4.34Z"/><path class="cls-3" d="M454.41,322.68a4,4,0,0,0-2.28-.77,3.1,3.1,0,0,0-1.16.22,2.88,2.88,0,0,0-.95.61,2.8,2.8,0,0,0-.64.94,3.08,3.08,0,0,0-.23,1.21,3,3,0,0,0,.23,1.19,2.9,2.9,0,0,0,.62.94,2.74,2.74,0,0,0,.95.61,3.2,3.2,0,0,0,1.18.22,3.6,3.6,0,0,0,2.28-.84v3.7a7.69,7.69,0,0,1-3,.7,7.2,7.2,0,0,1-2.56-.46,6.4,6.4,0,0,1-3.61-3.35,6.22,6.22,0,0,1-.55-2.65,6.62,6.62,0,0,1,.53-2.68,6.41,6.41,0,0,1,1.44-2.09,6.52,6.52,0,0,1,2.17-1.37,7.35,7.35,0,0,1,2.7-.49,6.47,6.47,0,0,1,2.93.67Z"/><path class="cls-3" d="M457.49,311.09h4.34v9.17a4.74,4.74,0,0,1,1.8-1.45,5.63,5.63,0,0,1,2.14-.37,4.56,4.56,0,0,1,3.52,1.28,4.9,4.9,0,0,1,1.19,3.47V331h-4.34v-6.22a6.46,6.46,0,0,0-.14-1.51,1.77,1.77,0,0,0-.48-.89,2,2,0,0,0-1.39-.5,2.15,2.15,0,0,0-1.69.66,2.74,2.74,0,0,0-.59,1.88V331h-4.34Z"/><rect class="cls-4" x="150.5" y="17.02" width="217" height="73"/><path class="cls-3" d="M179.05,46a7.36,7.36,0,0,1,2.57.44,5.57,5.57,0,0,1,2.06,1.32A6.08,6.08,0,0,1,185,50a8.9,8.9,0,0,1,.49,3.1,9.89,9.89,0,0,1-.4,2.88,6.35,6.35,0,0,1-1.21,2.28,5.68,5.68,0,0,1-2,1.51,6.85,6.85,0,0,1-2.85.55h-6.16V46Zm-.22,11.64a4,4,0,0,0,1.32-.22,2.9,2.9,0,0,0,1.14-.73,3.67,3.67,0,0,0,.8-1.33,5.86,5.86,0,0,0,.3-2,8.32,8.32,0,0,0-.21-2,3.9,3.9,0,0,0-.69-1.49,3.06,3.06,0,0,0-1.27-.95,5.06,5.06,0,0,0-2-.33H176v9Z"/><path class="cls-3" d="M187.47,52.9a4.73,4.73,0,0,1,2.76-2.82,5.91,5.91,0,0,1,2.2-.39,6,6,0,0,1,2.21.39,4.71,4.71,0,0,1,2.77,2.82,6.36,6.36,0,0,1,.38,2.25,6.28,6.28,0,0,1-.38,2.24,4.86,4.86,0,0,1-1.08,1.71,4.7,4.7,0,0,1-1.69,1.09,6.13,6.13,0,0,1-2.21.38,6.05,6.05,0,0,1-2.2-.38,4.71,4.71,0,0,1-1.68-1.09,4.84,4.84,0,0,1-1.08-1.71,6.26,6.26,0,0,1-.38-2.24A6.35,6.35,0,0,1,187.47,52.9Zm2.58,3.46a3.22,3.22,0,0,0,.41,1.06,2.18,2.18,0,0,0,.77.75,2.35,2.35,0,0,0,1.2.28,2.41,2.41,0,0,0,1.21-.28,2.16,2.16,0,0,0,.78-.75,3.23,3.23,0,0,0,.41-1.06,6,6,0,0,0,.12-1.21,6.19,6.19,0,0,0-.12-1.22,3.12,3.12,0,0,0-.41-1.06,2.29,2.29,0,0,0-.78-.75,2.35,2.35,0,0,0-1.21-.29,2.3,2.3,0,0,0-1.2.29,2.32,2.32,0,0,0-.77.75,3.11,3.11,0,0,0-.41,1.06,6.19,6.19,0,0,0-.12,1.22A6,6,0,0,0,190.05,56.36Z"/><path class="cls-3" d="M204.57,51.83a2,2,0,0,0-1.14.31,2.47,2.47,0,0,0-.75.8,3.45,3.45,0,0,0-.41,1.08,5.85,5.85,0,0,0-.12,1.17,5.6,5.6,0,0,0,.12,1.14,3.52,3.52,0,0,0,.39,1.05,2.24,2.24,0,0,0,.73.77,2,2,0,0,0,1.12.3,2.08,2.08,0,0,0,1.57-.57,2.7,2.7,0,0,0,.69-1.53h2.74a4.68,4.68,0,0,1-1.6,3.14,5.16,5.16,0,0,1-3.38,1.08,5.66,5.66,0,0,1-2.13-.39,4.71,4.71,0,0,1-1.65-1.09,5,5,0,0,1-1.06-1.67,5.79,5.79,0,0,1-.38-2.13,6.89,6.89,0,0,1,.35-2.23,5,5,0,0,1,1-1.78,4.71,4.71,0,0,1,1.66-1.17,5.64,5.64,0,0,1,2.24-.42,6.48,6.48,0,0,1,1.77.24,4.74,4.74,0,0,1,1.52.73,3.78,3.78,0,0,1,1.57,3h-2.78A1.9,1.9,0,0,0,204.57,51.83Z"/><path class="cls-3" d="M214.55,46v5.48h5.78V46h3.14V60.31h-3.14V54.15h-5.78v6.16h-3.14V46Z"/><path class="cls-3" d="M232.93,60.31V58.87h-.06a3.19,3.19,0,0,1-1.4,1.3,4.13,4.13,0,0,1-1.76.4,5,5,0,0,1-1.87-.3,2.7,2.7,0,0,1-1.15-.85,3.33,3.33,0,0,1-.59-1.34,8.33,8.33,0,0,1-.17-1.75V50h2.84v5.84a3.62,3.62,0,0,0,.4,1.91,1.55,1.55,0,0,0,1.42.63,2,2,0,0,0,1.68-.69,3.83,3.83,0,0,0,.52-2.27V50h2.84V60.31Z"/><path class="cls-3" d="M240.63,46v5.2h0a3,3,0,0,1,1.41-1.17,4.78,4.78,0,0,1,1.85-.37,3.95,3.95,0,0,1,2.91,1.3,5,5,0,0,1,1,1.69,8.09,8.09,0,0,1,0,4.9,5,5,0,0,1-1,1.69,3.94,3.94,0,0,1-2.91,1.3,5.47,5.47,0,0,1-2-.36A2.59,2.59,0,0,1,240.53,59h0v1.32h-2.7V46Zm4.6,7.86a3.3,3.3,0,0,0-.44-1.06,2.31,2.31,0,0,0-.75-.73,2.31,2.31,0,0,0-2.17,0,2.27,2.27,0,0,0-.76.73,3.3,3.3,0,0,0-.44,1.06,5.54,5.54,0,0,0-.14,1.26,5.45,5.45,0,0,0,.14,1.24,3.29,3.29,0,0,0,.44,1.06,2.26,2.26,0,0,0,.76.73,2.32,2.32,0,0,0,2.17,0,2.3,2.3,0,0,0,.75-.73,3.29,3.29,0,0,0,.44-1.06,5.45,5.45,0,0,0,.14-1.24A5.54,5.54,0,0,0,245.23,53.89Z"/><path class="cls-3" d="M265.91,46v2.64H259V52h6v2.44h-6v5.9h-3.14V46Z"/><path class="cls-3" d="M270.13,50v1.92h0a3.49,3.49,0,0,1,.54-.89,3.53,3.53,0,0,1,.78-.7,3.79,3.79,0,0,1,.94-.45,3.4,3.4,0,0,1,1-.16,2.19,2.19,0,0,1,.62.1v2.64l-.48-.07-.54,0a3,3,0,0,0-1.32.26,2.29,2.29,0,0,0-.87.71,2.84,2.84,0,0,0-.47,1,5.72,5.72,0,0,0-.14,1.3v4.66h-2.84V50Z"/><path class="cls-3" d="M274.93,52.9a4.73,4.73,0,0,1,2.76-2.82,5.91,5.91,0,0,1,2.2-.39,6,6,0,0,1,2.21.39,4.71,4.71,0,0,1,2.77,2.82,6.36,6.36,0,0,1,.38,2.25,6.28,6.28,0,0,1-.38,2.24,4.86,4.86,0,0,1-1.08,1.71,4.7,4.7,0,0,1-1.69,1.09,6.13,6.13,0,0,1-2.21.38,6.05,6.05,0,0,1-2.2-.38A4.71,4.71,0,0,1,276,59.1a4.84,4.84,0,0,1-1.08-1.71,6.26,6.26,0,0,1-.38-2.24A6.35,6.35,0,0,1,274.93,52.9Zm2.58,3.46a3.22,3.22,0,0,0,.41,1.06,2.18,2.18,0,0,0,.77.75,2.35,2.35,0,0,0,1.2.28,2.41,2.41,0,0,0,1.21-.28,2.16,2.16,0,0,0,.78-.75,3.23,3.23,0,0,0,.41-1.06,6,6,0,0,0,.12-1.21,6.19,6.19,0,0,0-.12-1.22,3.12,3.12,0,0,0-.41-1.06,2.29,2.29,0,0,0-.78-.75,2.35,2.35,0,0,0-1.21-.29,2.3,2.3,0,0,0-1.2.29,2.32,2.32,0,0,0-.77.75,3.11,3.11,0,0,0-.41,1.06,6.19,6.19,0,0,0-.12,1.22A6,6,0,0,0,277.51,56.36Z"/><path class="cls-3" d="M289.79,50v1.44h.06a3.26,3.26,0,0,1,1.4-1.31,4,4,0,0,1,1.76-.41,4.82,4.82,0,0,1,1.87.31,2.77,2.77,0,0,1,1.15.86,3.33,3.33,0,0,1,.59,1.34,8.34,8.34,0,0,1,.17,1.75v6.36H294V54.47a3.62,3.62,0,0,0-.4-1.91,1.55,1.55,0,0,0-1.42-.63,2,2,0,0,0-1.68.69,3.84,3.84,0,0,0-.52,2.27v5.42h-2.84V50Z"/><path class="cls-3" d="M304.63,50v1.9h-2.08V57a1,1,0,0,0,1.2,1.2l.46,0,.42-.06v2.2a6.82,6.82,0,0,1-.8.08l-.86,0a8.22,8.22,0,0,1-1.25-.09,3,3,0,0,1-1-.35,1.84,1.84,0,0,1-.71-.74,2.64,2.64,0,0,1-.26-1.26v-6.1H298V50h1.72v-3.1h2.84V50Z"/><path class="cls-3" d="M322.53,46v2.64H315v3.06h6.92v2.44H315v3.5h7.7v2.64H311.85V46Z"/><path class="cls-3" d="M327.21,50v1.44h.06a3.26,3.26,0,0,1,1.4-1.31,4,4,0,0,1,1.76-.41,4.82,4.82,0,0,1,1.87.31,2.77,2.77,0,0,1,1.15.86A3.34,3.34,0,0,1,334,52.2a8.41,8.41,0,0,1,.17,1.75v6.36h-2.84V54.47a3.62,3.62,0,0,0-.4-1.91,1.55,1.55,0,0,0-1.42-.63,2,2,0,0,0-1.68.69,3.83,3.83,0,0,0-.52,2.27v5.42h-2.84V50Z"/><path class="cls-3" d="M343.71,59a2.92,2.92,0,0,1-1.31,1.21,4.35,4.35,0,0,1-1.83.37,4.41,4.41,0,0,1-2-.45,4.09,4.09,0,0,1-1.45-1.22,5.53,5.53,0,0,1-.86-1.77,7.43,7.43,0,0,1-.29-2.08,7,7,0,0,1,.29-2,5.23,5.23,0,0,1,.86-1.71,4.18,4.18,0,0,1,3.43-1.64,4.07,4.07,0,0,1,1.75.39,3.05,3.05,0,0,1,1.31,1.15h0V46h2.84V60.31h-2.7V59Zm-.12-5.11a3,3,0,0,0-.41-1,2.32,2.32,0,0,0-.75-.73,2.2,2.2,0,0,0-1.16-.28,2.31,2.31,0,0,0-1.18.28,2.22,2.22,0,0,0-.77.74,3.26,3.26,0,0,0-.42,1,5.69,5.69,0,0,0-.13,1.23,5.23,5.23,0,0,0,.14,1.2,3.25,3.25,0,0,0,.45,1.07,2.47,2.47,0,0,0,.78.76,2.11,2.11,0,0,0,1.13.29,2.26,2.26,0,0,0,1.17-.28,2.14,2.14,0,0,0,.75-.75,3.37,3.37,0,0,0,.4-1.07,6.31,6.31,0,0,0,.12-1.24A6.15,6.15,0,0,0,343.59,53.88Z"/><rect class="cls-5" x="363.5" y="452.02" width="124" height="66"/><path class="cls-3" d="M382.5,489.39h-5.6L376,492h-4.18l5.74-15.08h4.28L387.58,492h-4.18Zm-1-3-1.76-5-1.76,5Z"/><path class="cls-3" d="M396.83,475.41h3.64V492h-3.64v-1.14a3.8,3.8,0,0,1-3.14,1.46,5,5,0,0,1-2.06-.42,5.1,5.1,0,0,1-1.64-1.16,5.32,5.32,0,0,1-1.09-1.74,6.13,6.13,0,0,1,0-4.25,5.25,5.25,0,0,1,1-1.73,5,5,0,0,1,3.72-1.6,4.18,4.18,0,0,1,3.18,1.34Zm-4.56,11.44a2.4,2.4,0,0,0,.67,1.68,2.21,2.21,0,0,0,.74.5,2.38,2.38,0,0,0,.93.18,2.33,2.33,0,0,0,.91-.18,2.21,2.21,0,0,0,.74-.5,2.57,2.57,0,0,0,.5-.74,2.15,2.15,0,0,0,.19-.9,2.22,2.22,0,0,0-.19-.91,2.56,2.56,0,0,0-.5-.75,2.19,2.19,0,0,0-.74-.5,2.38,2.38,0,0,0-1.82,0,2.18,2.18,0,0,0-.74.5,2.63,2.63,0,0,0-.5.73A2.09,2.09,0,0,0,392.27,486.85Z"/><path class="cls-3" d="M410.85,481.75h3.64V492h-3.64v-1.14a3.8,3.8,0,0,1-3.14,1.46,5.11,5.11,0,0,1-2.06-.41,5,5,0,0,1-1.64-1.15,5.3,5.3,0,0,1-1.09-1.74,5.93,5.93,0,0,1-.39-2.18,5.79,5.79,0,0,1,.38-2.09A5.36,5.36,0,0,1,404,483a5,5,0,0,1,1.62-1.17,4.93,4.93,0,0,1,2.08-.43,4.18,4.18,0,0,1,3.18,1.34Zm-4.56,5.1a2.4,2.4,0,0,0,.67,1.68,2.21,2.21,0,0,0,.74.5,2.38,2.38,0,0,0,.93.18,2.33,2.33,0,0,0,.91-.18,2.21,2.21,0,0,0,.74-.5,2.57,2.57,0,0,0,.5-.74,2.15,2.15,0,0,0,.19-.9,2.22,2.22,0,0,0-.19-.91,2.56,2.56,0,0,0-.5-.75,2.19,2.19,0,0,0-.74-.5,2.33,2.33,0,0,0-.91-.18,2.38,2.38,0,0,0-.93.18,2.19,2.19,0,0,0-.74.5,2.48,2.48,0,0,0-.49.73A2.19,2.19,0,0,0,406.29,486.85Z"/><path class="cls-3" d="M420.57,497.13H417V481.75h3.62v1.14a3.82,3.82,0,0,1,3.16-1.46,4.91,4.91,0,0,1,2.05.43,5.21,5.21,0,0,1,1.65,1.17,5.31,5.31,0,0,1,1.09,1.74,5.82,5.82,0,0,1,.39,2.14,5.66,5.66,0,0,1-.39,2.12,5.46,5.46,0,0,1-1.08,1.72,5,5,0,0,1-1.63,1.16,4.94,4.94,0,0,1-2,.42,4.28,4.28,0,0,1-3.2-1.32Zm4.56-10.22A2.45,2.45,0,0,0,425,486a2.18,2.18,0,0,0-.49-.75,2.44,2.44,0,0,0-.75-.51,2.29,2.29,0,0,0-.93-.19,2.26,2.26,0,0,0-.9.18,2.22,2.22,0,0,0-.73.5,2.54,2.54,0,0,0-.5.75,2.22,2.22,0,0,0-.19.91,2.26,2.26,0,0,0,.18.9,2.21,2.21,0,0,0,.5.73,2.53,2.53,0,0,0,.75.5,2.22,2.22,0,0,0,.91.19,2.26,2.26,0,0,0,.9-.18,2.24,2.24,0,0,0,.73-.5,2.59,2.59,0,0,0,.5-.74A2.12,2.12,0,0,0,425.13,486.91Z"/><path class="cls-3" d="M435.15,484.77V492h-3.62v-7.24h-1.2v-3h1.2v-3.08h3.62v3.08h2.06v3Z"/><path class="cls-3" d="M442,487.49q0,2.34,2.2,2.34a2,2,0,0,0,1.78-1h3.5q-1.06,3.52-5.3,3.52a7,7,0,0,1-2.38-.39,5.31,5.31,0,0,1-1.85-1.11,4.94,4.94,0,0,1-1.19-1.72,5.75,5.75,0,0,1-.42-2.24,6.32,6.32,0,0,1,.4-2.31,4.86,4.86,0,0,1,1.14-1.75,5,5,0,0,1,1.79-1.11,6.78,6.78,0,0,1,2.37-.39,6.63,6.63,0,0,1,2.34.39,4.74,4.74,0,0,1,1.76,1.13,4.93,4.93,0,0,1,1.1,1.81,7.18,7.18,0,0,1,.38,2.41v.38Zm4.24-2.1a2.18,2.18,0,0,0-.74-1.22,2.29,2.29,0,0,0-2.73,0,2,2,0,0,0-.67,1.24Z"/><path class="cls-3" d="M451.71,481.75h3.62v1.68a4.14,4.14,0,0,1,1.42-1.41,3.82,3.82,0,0,1,2-.49H459a2.25,2.25,0,0,1,.39,0V485a3.44,3.44,0,0,0-1.56-.36,2.33,2.33,0,0,0-1.89.75,3.32,3.32,0,0,0-.63,2.19V492h-3.62Z"/><path class="cls-3" d="M467.81,481.75h3.62V483a4,4,0,0,1,1.5-1.21,4.68,4.68,0,0,1,1.78-.31,4.46,4.46,0,0,1,1.85.35,3.71,3.71,0,0,1,1.31,1,2.87,2.87,0,0,1,.6,1.16,6.06,6.06,0,0,1,.16,1.46V492H475v-5.18a5.57,5.57,0,0,0-.11-1.23,1.52,1.52,0,0,0-.39-.75,1.37,1.37,0,0,0-.54-.34,2,2,0,0,0-.64-.1,1.79,1.79,0,0,0-1.41.55,2.29,2.29,0,0,0-.49,1.57V492h-3.62Z"/><rect class="cls-6" x="181.5" y="599.02" width="105" height="62"/><rect class="cls-7" x="181.5" y="599.02" width="105" height="62"/><path d="M207.26,625.79A4.85,4.85,0,0,0,206,625a3.39,3.39,0,0,0-1.24-.25,2,2,0,0,0-1.24.36,1.12,1.12,0,0,0-.48.94.94.94,0,0,0,.24.66,2.11,2.11,0,0,0,.63.45,5.38,5.38,0,0,0,.88.33l1,.3a6.06,6.06,0,0,1,2.81,1.71,4.22,4.22,0,0,1,.89,2.79,5.43,5.43,0,0,1-.39,2.1,4.38,4.38,0,0,1-1.14,1.61,5.24,5.24,0,0,1-1.84,1,7.65,7.65,0,0,1-2.47.37,9.08,9.08,0,0,1-5.3-1.7l1.68-3.16a6.79,6.79,0,0,0,1.74,1.16,4.19,4.19,0,0,0,1.7.38,2,2,0,0,0,1.43-.44,1.36,1.36,0,0,0,.35-1.59,1.28,1.28,0,0,0-.4-.46,3.23,3.23,0,0,0-.73-.39l-1.09-.4q-.76-.24-1.49-.53a4.68,4.68,0,0,1-1.3-.77,3.57,3.57,0,0,1-.92-1.21,4.28,4.28,0,0,1-.35-1.85,5.34,5.34,0,0,1,.37-2,4.5,4.5,0,0,1,1-1.56,4.65,4.65,0,0,1,1.64-1,6.2,6.2,0,0,1,2.17-.36,9.53,9.53,0,0,1,2.34.31,10.32,10.32,0,0,1,2.34.91Z"/><path d="M211.16,631.79a5,5,0,0,1,.46-2.13,5.23,5.23,0,0,1,1.28-1.72,6.09,6.09,0,0,1,1.95-1.15,7.05,7.05,0,0,1,2.47-.42,7.13,7.13,0,0,1,2.45.41,6.06,6.06,0,0,1,2,1.14,5.13,5.13,0,0,1,1.29,1.74,5.32,5.32,0,0,1,.46,2.23,5.22,5.22,0,0,1-.47,2.23,5.28,5.28,0,0,1-1.29,1.74,5.78,5.78,0,0,1-2,1.13,7.54,7.54,0,0,1-2.49.4,7.21,7.21,0,0,1-2.44-.4,5.63,5.63,0,0,1-1.93-1.14,5.3,5.3,0,0,1-1.27-1.77A5.55,5.55,0,0,1,211.16,631.79Zm3.82,0a2.32,2.32,0,0,0,.19,1,2.52,2.52,0,0,0,.5.75,2.21,2.21,0,0,0,.74.5,2.39,2.39,0,0,0,1.82,0,2.21,2.21,0,0,0,.74-.5,2.54,2.54,0,0,0,.5-.75,2.28,2.28,0,0,0,.19-.93,2.23,2.23,0,0,0-.19-.91,2.54,2.54,0,0,0-.5-.75,2.19,2.19,0,0,0-.74-.5,2.39,2.39,0,0,0-1.82,0,2.19,2.19,0,0,0-.74.5,2.57,2.57,0,0,0-.5.74A2.15,2.15,0,0,0,215,631.83Z"/><path d="M229.18,626.75v5.78a1.84,1.84,0,1,0,3.68,0v-5.78h3.62v6.48a3.67,3.67,0,0,1-1.37,3.12,8.57,8.57,0,0,1-8.18,0,3.67,3.67,0,0,1-1.37-3.12v-6.48Z"/><path d="M238.94,626.75h3.62v1.68A4.16,4.16,0,0,1,244,627a3.83,3.83,0,0,1,2-.49h.31a2.24,2.24,0,0,1,.39,0V630a3.44,3.44,0,0,0-1.56-.36,2.33,2.33,0,0,0-1.89.75,3.32,3.32,0,0,0-.63,2.19V637h-3.62Z"/><path d="M256.08,630.07a3.35,3.35,0,0,0-1.9-.64,2.59,2.59,0,0,0-1,.18,2.41,2.41,0,0,0-.79.51,2.35,2.35,0,0,0-.53.78,2.57,2.57,0,0,0-.19,1,2.51,2.51,0,0,0,.19,1,2.43,2.43,0,0,0,.52.78,2.27,2.27,0,0,0,.79.51,2.68,2.68,0,0,0,1,.18,3,3,0,0,0,1.9-.7v3.08a6.42,6.42,0,0,1-2.54.58,6,6,0,0,1-2.13-.38,5.41,5.41,0,0,1-1.78-1.09,5.35,5.35,0,0,1-1.23-1.7,5.18,5.18,0,0,1-.46-2.21,5.53,5.53,0,0,1,.44-2.23,5.36,5.36,0,0,1,1.2-1.74,5.42,5.42,0,0,1,1.81-1.14,6.13,6.13,0,0,1,2.25-.41,5.38,5.38,0,0,1,2.44.56Z"/><path d="M261.4,632.49q0,2.34,2.2,2.34a2,2,0,0,0,1.78-1h3.5q-1.06,3.52-5.3,3.52a7,7,0,0,1-2.38-.39,5.31,5.31,0,0,1-1.85-1.11,4.94,4.94,0,0,1-1.19-1.72,5.74,5.74,0,0,1-.42-2.24,6.33,6.33,0,0,1,.4-2.31,4.86,4.86,0,0,1,1.14-1.75,5,5,0,0,1,1.79-1.11,6.78,6.78,0,0,1,2.37-.39,6.63,6.63,0,0,1,2.34.39,4.75,4.75,0,0,1,1.76,1.13,4.93,4.93,0,0,1,1.1,1.81,7.18,7.18,0,0,1,.38,2.41v.38Zm4.24-2.1a2.18,2.18,0,0,0-.74-1.22,2.29,2.29,0,0,0-2.73,0,2,2,0,0,0-.67,1.24Z"/><rect class="cls-6" x="194.5" y="584.02" width="105" height="62"/><rect class="cls-7" x="194.5" y="584.02" width="105" height="62"/><path d="M220.26,610.79A4.85,4.85,0,0,0,219,610a3.39,3.39,0,0,0-1.24-.25,2,2,0,0,0-1.24.36,1.12,1.12,0,0,0-.48.94.94.94,0,0,0,.24.66,2.11,2.11,0,0,0,.63.45,5.38,5.38,0,0,0,.88.33l1,.3a6.06,6.06,0,0,1,2.81,1.71,4.22,4.22,0,0,1,.89,2.79,5.43,5.43,0,0,1-.39,2.1,4.38,4.38,0,0,1-1.14,1.61,5.24,5.24,0,0,1-1.84,1,7.65,7.65,0,0,1-2.47.37,9.08,9.08,0,0,1-5.3-1.7l1.68-3.16a6.79,6.79,0,0,0,1.74,1.16,4.19,4.19,0,0,0,1.7.38,2,2,0,0,0,1.43-.44,1.36,1.36,0,0,0,.35-1.59,1.28,1.28,0,0,0-.4-.46,3.23,3.23,0,0,0-.73-.39l-1.09-.4q-.76-.24-1.49-.53a4.68,4.68,0,0,1-1.3-.77,3.57,3.57,0,0,1-.92-1.21,4.28,4.28,0,0,1-.35-1.85,5.34,5.34,0,0,1,.37-2,4.5,4.5,0,0,1,1-1.56,4.65,4.65,0,0,1,1.64-1,6.2,6.2,0,0,1,2.17-.36,9.53,9.53,0,0,1,2.34.31,10.32,10.32,0,0,1,2.34.91Z"/><path d="M224.16,616.79a5,5,0,0,1,.46-2.13,5.23,5.23,0,0,1,1.28-1.72,6.09,6.09,0,0,1,1.95-1.15,7.05,7.05,0,0,1,2.47-.42,7.13,7.13,0,0,1,2.45.41,6.06,6.06,0,0,1,2,1.14,5.13,5.13,0,0,1,1.29,1.74,5.32,5.32,0,0,1,.46,2.23,5.22,5.22,0,0,1-.47,2.23,5.28,5.28,0,0,1-1.29,1.74,5.78,5.78,0,0,1-2,1.13,7.54,7.54,0,0,1-2.49.4,7.21,7.21,0,0,1-2.44-.4,5.63,5.63,0,0,1-1.93-1.14,5.3,5.3,0,0,1-1.27-1.77A5.55,5.55,0,0,1,224.16,616.79Zm3.82,0a2.32,2.32,0,0,0,.19,1,2.52,2.52,0,0,0,.5.75,2.21,2.21,0,0,0,.74.5,2.39,2.39,0,0,0,1.82,0,2.21,2.21,0,0,0,.74-.5,2.54,2.54,0,0,0,.5-.75,2.28,2.28,0,0,0,.19-.93,2.23,2.23,0,0,0-.19-.91,2.54,2.54,0,0,0-.5-.75,2.19,2.19,0,0,0-.74-.5,2.39,2.39,0,0,0-1.82,0,2.19,2.19,0,0,0-.74.5,2.57,2.57,0,0,0-.5.74A2.15,2.15,0,0,0,228,616.83Z"/><path d="M242.18,611.75v5.78a1.84,1.84,0,1,0,3.68,0v-5.78h3.62v6.48a3.67,3.67,0,0,1-1.37,3.12,8.57,8.57,0,0,1-8.18,0,3.67,3.67,0,0,1-1.37-3.12v-6.48Z"/><path d="M251.94,611.75h3.62v1.68A4.16,4.16,0,0,1,257,612a3.83,3.83,0,0,1,2-.49h.31a2.24,2.24,0,0,1,.39,0V615a3.44,3.44,0,0,0-1.56-.36,2.33,2.33,0,0,0-1.89.75,3.32,3.32,0,0,0-.63,2.19V622h-3.62Z"/><path d="M269.08,615.07a3.35,3.35,0,0,0-1.9-.64,2.59,2.59,0,0,0-1,.18,2.41,2.41,0,0,0-.79.51,2.35,2.35,0,0,0-.53.78,2.57,2.57,0,0,0-.19,1,2.51,2.51,0,0,0,.19,1,2.43,2.43,0,0,0,.52.78,2.27,2.27,0,0,0,.79.51,2.68,2.68,0,0,0,1,.18,3,3,0,0,0,1.9-.7v3.08a6.42,6.42,0,0,1-2.54.58,6,6,0,0,1-2.13-.38,5.41,5.41,0,0,1-1.78-1.09,5.35,5.35,0,0,1-1.23-1.7,5.18,5.18,0,0,1-.46-2.21,5.53,5.53,0,0,1,.44-2.23,5.36,5.36,0,0,1,1.2-1.74,5.42,5.42,0,0,1,1.81-1.14,6.13,6.13,0,0,1,2.25-.41,5.38,5.38,0,0,1,2.44.56Z"/><path d="M274.4,617.49q0,2.34,2.2,2.34a2,2,0,0,0,1.78-1h3.5q-1.06,3.52-5.3,3.52a7,7,0,0,1-2.38-.39,5.31,5.31,0,0,1-1.85-1.11,4.94,4.94,0,0,1-1.19-1.72,5.74,5.74,0,0,1-.42-2.24,6.33,6.33,0,0,1,.4-2.31,4.86,4.86,0,0,1,1.14-1.75,5,5,0,0,1,1.79-1.11,6.78,6.78,0,0,1,2.37-.39,6.63,6.63,0,0,1,2.34.39,4.75,4.75,0,0,1,1.76,1.13,4.93,4.93,0,0,1,1.1,1.81,7.18,7.18,0,0,1,.38,2.41v.38Zm4.24-2.1a2.18,2.18,0,0,0-.74-1.22,2.29,2.29,0,0,0-2.73,0,2,2,0,0,0-.67,1.24Z"/><rect class="cls-6" x="348.5" y="599.02" width="105" height="62"/><rect class="cls-7" x="348.5" y="599.02" width="105" height="62"/><path d="M374.63,625.79a4.85,4.85,0,0,0-1.28-.77,3.39,3.39,0,0,0-1.24-.25,2,2,0,0,0-1.24.36,1.12,1.12,0,0,0-.48.94.93.93,0,0,0,.24.66,2.1,2.1,0,0,0,.63.45,5.38,5.38,0,0,0,.88.33l1,.3a6.06,6.06,0,0,1,2.81,1.71,4.22,4.22,0,0,1,.89,2.79,5.44,5.44,0,0,1-.39,2.1,4.4,4.4,0,0,1-1.14,1.61,5.24,5.24,0,0,1-1.84,1,7.65,7.65,0,0,1-2.47.37,9.08,9.08,0,0,1-5.3-1.7l1.68-3.16a6.78,6.78,0,0,0,1.74,1.16,4.19,4.19,0,0,0,1.7.38,2,2,0,0,0,1.43-.44,1.36,1.36,0,0,0,.35-1.59,1.28,1.28,0,0,0-.4-.46,3.25,3.25,0,0,0-.73-.39l-1.09-.4q-.76-.24-1.49-.53a4.68,4.68,0,0,1-1.3-.77,3.58,3.58,0,0,1-.92-1.21,4.28,4.28,0,0,1-.35-1.85,5.36,5.36,0,0,1,.37-2,4.52,4.52,0,0,1,1-1.56,4.65,4.65,0,0,1,1.64-1,6.19,6.19,0,0,1,2.17-.36,9.53,9.53,0,0,1,2.34.31,10.32,10.32,0,0,1,2.34.91Z"/><path d="M378.53,631.79a5,5,0,0,1,.46-2.13,5.23,5.23,0,0,1,1.28-1.72,6.1,6.1,0,0,1,2-1.15,7,7,0,0,1,2.47-.42,7.13,7.13,0,0,1,2.45.41,6.06,6.06,0,0,1,2,1.14,5.12,5.12,0,0,1,1.29,1.74,5.32,5.32,0,0,1,.46,2.23,5.23,5.23,0,0,1-.47,2.23,5.3,5.3,0,0,1-1.29,1.74,5.79,5.79,0,0,1-2,1.13,7.53,7.53,0,0,1-2.49.4,7.2,7.2,0,0,1-2.44-.4,5.63,5.63,0,0,1-1.93-1.14,5.3,5.3,0,0,1-1.27-1.77A5.55,5.55,0,0,1,378.53,631.79Zm3.82,0a2.32,2.32,0,0,0,.19,1,2.55,2.55,0,0,0,.5.75,2.21,2.21,0,0,0,.74.5,2.39,2.39,0,0,0,1.82,0,2.22,2.22,0,0,0,.74-.5,2.55,2.55,0,0,0,.5-.75,2.29,2.29,0,0,0,.19-.93,2.24,2.24,0,0,0-.19-.91,2.55,2.55,0,0,0-.5-.75,2.2,2.2,0,0,0-.74-.5,2.39,2.39,0,0,0-1.82,0,2.19,2.19,0,0,0-.74.5,2.59,2.59,0,0,0-.5.74A2.15,2.15,0,0,0,382.35,631.83Z"/><path d="M396.55,626.75v5.78a1.84,1.84,0,1,0,3.68,0v-5.78h3.62v6.48a3.67,3.67,0,0,1-1.37,3.12,8.57,8.57,0,0,1-8.18,0,3.67,3.67,0,0,1-1.37-3.12v-6.48Z"/><path d="M406.31,626.75h3.62v1.68a4.14,4.14,0,0,1,1.42-1.41,3.82,3.82,0,0,1,2-.49h.31a2.25,2.25,0,0,1,.39,0V630a3.44,3.44,0,0,0-1.56-.36,2.33,2.33,0,0,0-1.89.75,3.32,3.32,0,0,0-.63,2.19V637h-3.62Z"/><path d="M423.45,630.07a3.35,3.35,0,0,0-1.9-.64,2.58,2.58,0,0,0-1,.18,2.4,2.4,0,0,0-.79.51,2.35,2.35,0,0,0-.53.78,2.57,2.57,0,0,0-.19,1,2.51,2.51,0,0,0,.19,1,2.44,2.44,0,0,0,.52.78,2.29,2.29,0,0,0,.79.51,2.69,2.69,0,0,0,1,.18,3,3,0,0,0,1.9-.7v3.08a6.42,6.42,0,0,1-2.54.58,6,6,0,0,1-2.13-.38,5.41,5.41,0,0,1-1.78-1.09,5.34,5.34,0,0,1-1.23-1.7,5.18,5.18,0,0,1-.46-2.21,5.52,5.52,0,0,1,.44-2.23A5.34,5.34,0,0,1,417,628a5.41,5.41,0,0,1,1.81-1.14,6.13,6.13,0,0,1,2.25-.41,5.39,5.39,0,0,1,2.44.56Z"/><path d="M428.77,632.49q0,2.34,2.2,2.34a2,2,0,0,0,1.78-1h3.5q-1.06,3.52-5.3,3.52a7,7,0,0,1-2.38-.39,5.31,5.31,0,0,1-1.85-1.11,4.94,4.94,0,0,1-1.19-1.72,5.75,5.75,0,0,1-.42-2.24,6.32,6.32,0,0,1,.4-2.31,4.86,4.86,0,0,1,1.14-1.75,5,5,0,0,1,1.79-1.11,6.78,6.78,0,0,1,2.37-.39,6.63,6.63,0,0,1,2.34.39,4.74,4.74,0,0,1,1.76,1.13,4.93,4.93,0,0,1,1.1,1.81,7.18,7.18,0,0,1,.38,2.41v.38Zm4.24-2.1a2.18,2.18,0,0,0-.74-1.22,2.29,2.29,0,0,0-2.73,0,2,2,0,0,0-.67,1.24Z"/><rect class="cls-6" x="361.5" y="584.02" width="105" height="62"/><rect class="cls-7" x="361.5" y="584.02" width="105" height="62"/><path d="M387.63,610.79a4.85,4.85,0,0,0-1.28-.77,3.39,3.39,0,0,0-1.24-.25,2,2,0,0,0-1.24.36,1.12,1.12,0,0,0-.48.94.93.93,0,0,0,.24.66,2.1,2.1,0,0,0,.63.45,5.38,5.38,0,0,0,.88.33l1,.3a6.06,6.06,0,0,1,2.81,1.71,4.22,4.22,0,0,1,.89,2.79,5.44,5.44,0,0,1-.39,2.1,4.4,4.4,0,0,1-1.14,1.61,5.24,5.24,0,0,1-1.84,1,7.65,7.65,0,0,1-2.47.37,9.08,9.08,0,0,1-5.3-1.7l1.68-3.16a6.78,6.78,0,0,0,1.74,1.16,4.19,4.19,0,0,0,1.7.38,2,2,0,0,0,1.43-.44,1.36,1.36,0,0,0,.35-1.59,1.28,1.28,0,0,0-.4-.46,3.25,3.25,0,0,0-.73-.39l-1.09-.4q-.76-.24-1.49-.53a4.68,4.68,0,0,1-1.3-.77,3.58,3.58,0,0,1-.92-1.21,4.28,4.28,0,0,1-.35-1.85,5.36,5.36,0,0,1,.37-2,4.52,4.52,0,0,1,1-1.56,4.65,4.65,0,0,1,1.64-1,6.19,6.19,0,0,1,2.17-.36,9.53,9.53,0,0,1,2.34.31,10.32,10.32,0,0,1,2.34.91Z"/><path d="M391.53,616.79a5,5,0,0,1,.46-2.13,5.23,5.23,0,0,1,1.28-1.72,6.1,6.1,0,0,1,2-1.15,7,7,0,0,1,2.47-.42,7.13,7.13,0,0,1,2.45.41,6.06,6.06,0,0,1,2,1.14,5.12,5.12,0,0,1,1.29,1.74,5.32,5.32,0,0,1,.46,2.23,5.23,5.23,0,0,1-.47,2.23,5.3,5.3,0,0,1-1.29,1.74,5.79,5.79,0,0,1-2,1.13,7.53,7.53,0,0,1-2.49.4,7.2,7.2,0,0,1-2.44-.4,5.63,5.63,0,0,1-1.93-1.14,5.3,5.3,0,0,1-1.27-1.77A5.55,5.55,0,0,1,391.53,616.79Zm3.82,0a2.32,2.32,0,0,0,.19,1,2.55,2.55,0,0,0,.5.75,2.21,2.21,0,0,0,.74.5,2.39,2.39,0,0,0,1.82,0,2.22,2.22,0,0,0,.74-.5,2.55,2.55,0,0,0,.5-.75,2.29,2.29,0,0,0,.19-.93,2.24,2.24,0,0,0-.19-.91,2.55,2.55,0,0,0-.5-.75,2.2,2.2,0,0,0-.74-.5,2.39,2.39,0,0,0-1.82,0,2.19,2.19,0,0,0-.74.5,2.59,2.59,0,0,0-.5.74A2.15,2.15,0,0,0,395.35,616.83Z"/><path d="M409.55,611.75v5.78a1.84,1.84,0,1,0,3.68,0v-5.78h3.62v6.48a3.67,3.67,0,0,1-1.37,3.12,8.57,8.57,0,0,1-8.18,0,3.67,3.67,0,0,1-1.37-3.12v-6.48Z"/><path d="M419.31,611.75h3.62v1.68a4.14,4.14,0,0,1,1.42-1.41,3.82,3.82,0,0,1,2-.49h.31a2.25,2.25,0,0,1,.39,0V615a3.44,3.44,0,0,0-1.56-.36,2.33,2.33,0,0,0-1.89.75,3.32,3.32,0,0,0-.63,2.19V622h-3.62Z"/><path d="M436.45,615.07a3.35,3.35,0,0,0-1.9-.64,2.58,2.58,0,0,0-1,.18,2.4,2.4,0,0,0-.79.51,2.35,2.35,0,0,0-.53.78,2.57,2.57,0,0,0-.19,1,2.51,2.51,0,0,0,.19,1,2.44,2.44,0,0,0,.52.78,2.29,2.29,0,0,0,.79.51,2.69,2.69,0,0,0,1,.18,3,3,0,0,0,1.9-.7v3.08a6.42,6.42,0,0,1-2.54.58,6,6,0,0,1-2.13-.38,5.41,5.41,0,0,1-1.78-1.09,5.34,5.34,0,0,1-1.23-1.7,5.18,5.18,0,0,1-.46-2.21,5.52,5.52,0,0,1,.44-2.23A5.34,5.34,0,0,1,430,613a5.41,5.41,0,0,1,1.81-1.14,6.13,6.13,0,0,1,2.25-.41,5.39,5.39,0,0,1,2.44.56Z"/><path d="M441.77,617.49q0,2.34,2.2,2.34a2,2,0,0,0,1.78-1h3.5q-1.06,3.52-5.3,3.52a7,7,0,0,1-2.38-.39,5.31,5.31,0,0,1-1.85-1.11,4.94,4.94,0,0,1-1.19-1.72,5.75,5.75,0,0,1-.42-2.24,6.32,6.32,0,0,1,.4-2.31,4.86,4.86,0,0,1,1.14-1.75,5,5,0,0,1,1.79-1.11,6.78,6.78,0,0,1,2.37-.39,6.63,6.63,0,0,1,2.34.39,4.74,4.74,0,0,1,1.76,1.13,4.93,4.93,0,0,1,1.1,1.81,7.18,7.18,0,0,1,.38,2.41v.38Zm4.24-2.1a2.18,2.18,0,0,0-.74-1.22,2.29,2.29,0,0,0-2.73,0,2,2,0,0,0-.67,1.24Z"/><rect class="cls-6" x="14.5" y="599.02" width="105" height="62"/><rect class="cls-7" x="14.5" y="599.02" width="105" height="62"/><path d="M40.38,625.79A4.85,4.85,0,0,0,39.1,625a3.39,3.39,0,0,0-1.24-.25,2,2,0,0,0-1.24.36,1.12,1.12,0,0,0-.48.94.94.94,0,0,0,.24.66,2.11,2.11,0,0,0,.63.45,5.38,5.38,0,0,0,.88.33l1,.3a6.06,6.06,0,0,1,2.81,1.71,4.22,4.22,0,0,1,.89,2.79,5.43,5.43,0,0,1-.39,2.1A4.38,4.38,0,0,1,41,636a5.24,5.24,0,0,1-1.84,1,7.65,7.65,0,0,1-2.47.37,9.08,9.08,0,0,1-5.3-1.7l1.68-3.16a6.79,6.79,0,0,0,1.74,1.16,4.19,4.19,0,0,0,1.7.38,2,2,0,0,0,1.43-.44,1.36,1.36,0,0,0,.35-1.59,1.28,1.28,0,0,0-.4-.46,3.23,3.23,0,0,0-.73-.39l-1.09-.4q-.76-.24-1.49-.53a4.68,4.68,0,0,1-1.3-.77,3.57,3.57,0,0,1-.92-1.21,4.28,4.28,0,0,1-.35-1.85,5.34,5.34,0,0,1,.37-2,4.5,4.5,0,0,1,1-1.56,4.65,4.65,0,0,1,1.64-1,6.2,6.2,0,0,1,2.17-.36,9.53,9.53,0,0,1,2.34.31,10.32,10.32,0,0,1,2.34.91Z"/><path d="M44.28,631.79a5,5,0,0,1,.46-2.13A5.23,5.23,0,0,1,46,627.94,6.09,6.09,0,0,1,48,626.79a7.05,7.05,0,0,1,2.47-.42,7.13,7.13,0,0,1,2.45.41,6.06,6.06,0,0,1,2,1.14,5.13,5.13,0,0,1,1.29,1.74,5.32,5.32,0,0,1,.46,2.23,5.22,5.22,0,0,1-.47,2.23,5.28,5.28,0,0,1-1.29,1.74,5.78,5.78,0,0,1-2,1.13,7.54,7.54,0,0,1-2.49.4,7.21,7.21,0,0,1-2.44-.4A5.63,5.63,0,0,1,46,635.85a5.3,5.3,0,0,1-1.27-1.77A5.55,5.55,0,0,1,44.28,631.79Zm3.82,0a2.32,2.32,0,0,0,.19,1,2.52,2.52,0,0,0,.5.75,2.21,2.21,0,0,0,.74.5,2.39,2.39,0,0,0,1.82,0,2.21,2.21,0,0,0,.74-.5,2.54,2.54,0,0,0,.5-.75,2.28,2.28,0,0,0,.19-.93,2.23,2.23,0,0,0-.19-.91,2.54,2.54,0,0,0-.5-.75,2.19,2.19,0,0,0-.74-.5,2.39,2.39,0,0,0-1.82,0,2.19,2.19,0,0,0-.74.5,2.57,2.57,0,0,0-.5.74A2.15,2.15,0,0,0,48.1,631.83Z"/><path d="M62.3,626.75v5.78a1.84,1.84,0,1,0,3.68,0v-5.78H69.6v6.48a3.67,3.67,0,0,1-1.37,3.12,6.71,6.71,0,0,1-4.09,1,6.71,6.71,0,0,1-4.09-1,3.67,3.67,0,0,1-1.37-3.12v-6.48Z"/><path d="M72.06,626.75h3.62v1.68A4.16,4.16,0,0,1,77.1,627a3.83,3.83,0,0,1,2-.49h.31a2.24,2.24,0,0,1,.39,0V630a3.44,3.44,0,0,0-1.56-.36,2.33,2.33,0,0,0-1.89.75,3.32,3.32,0,0,0-.63,2.19V637H72.06Z"/><path d="M89.2,630.07a3.35,3.35,0,0,0-1.9-.64,2.59,2.59,0,0,0-1,.18,2.41,2.41,0,0,0-.79.51,2.35,2.35,0,0,0-.53.78,2.57,2.57,0,0,0-.19,1,2.51,2.51,0,0,0,.19,1,2.43,2.43,0,0,0,.52.78,2.27,2.27,0,0,0,.79.51,2.68,2.68,0,0,0,1,.18,3,3,0,0,0,1.9-.7v3.08a6.42,6.42,0,0,1-2.54.58,6,6,0,0,1-2.13-.38,5.41,5.41,0,0,1-1.78-1.09,5.35,5.35,0,0,1-1.23-1.7,5.18,5.18,0,0,1-.46-2.21,5.53,5.53,0,0,1,.44-2.23A5.36,5.36,0,0,1,82.7,628a5.42,5.42,0,0,1,1.81-1.14,6.13,6.13,0,0,1,2.25-.41,5.38,5.38,0,0,1,2.44.56Z"/><path d="M94.52,632.49q0,2.34,2.2,2.34a2,2,0,0,0,1.78-1H102q-1.06,3.52-5.3,3.52a7,7,0,0,1-2.38-.39,5.31,5.31,0,0,1-1.85-1.11,4.94,4.94,0,0,1-1.19-1.72,5.74,5.74,0,0,1-.42-2.24,6.33,6.33,0,0,1,.4-2.31,4.86,4.86,0,0,1,1.14-1.75,5,5,0,0,1,1.79-1.11,6.78,6.78,0,0,1,2.37-.39,6.63,6.63,0,0,1,2.34.39,4.75,4.75,0,0,1,1.76,1.13,4.93,4.93,0,0,1,1.1,1.81,7.18,7.18,0,0,1,.38,2.41v.38Zm4.24-2.1a2.18,2.18,0,0,0-.74-1.22,2.29,2.29,0,0,0-2.73,0,2,2,0,0,0-.67,1.24Z"/><rect class="cls-6" x="206.5" y="567.02" width="105" height="62"/><rect class="cls-7" x="206.5" y="567.02" width="105" height="62"/><path d="M222.93,593.79a4.85,4.85,0,0,0-1.28-.77,3.39,3.39,0,0,0-1.24-.25,2,2,0,0,0-1.24.36,1.12,1.12,0,0,0-.48.94.94.94,0,0,0,.24.66,2.11,2.11,0,0,0,.63.45,5.38,5.38,0,0,0,.88.33l1,.3a6.06,6.06,0,0,1,2.81,1.71,4.22,4.22,0,0,1,.89,2.79,5.43,5.43,0,0,1-.39,2.1,4.38,4.38,0,0,1-1.14,1.61,5.24,5.24,0,0,1-1.84,1,7.65,7.65,0,0,1-2.47.37,9.08,9.08,0,0,1-5.3-1.7l1.68-3.16a6.79,6.79,0,0,0,1.74,1.16,4.19,4.19,0,0,0,1.7.38,2,2,0,0,0,1.43-.44,1.36,1.36,0,0,0,.35-1.59,1.28,1.28,0,0,0-.4-.46,3.23,3.23,0,0,0-.73-.39l-1.09-.4q-.76-.24-1.49-.53a4.68,4.68,0,0,1-1.3-.77,3.57,3.57,0,0,1-.92-1.21,4.28,4.28,0,0,1-.35-1.85,5.34,5.34,0,0,1,.37-2,4.5,4.5,0,0,1,1-1.56,4.65,4.65,0,0,1,1.64-1,6.2,6.2,0,0,1,2.17-.36,9.53,9.53,0,0,1,2.34.31,10.32,10.32,0,0,1,2.34.91Z"/><path d="M226.83,599.79a5,5,0,0,1,.46-2.13,5.23,5.23,0,0,1,1.28-1.72,6.09,6.09,0,0,1,1.95-1.15,7.05,7.05,0,0,1,2.47-.42,7.13,7.13,0,0,1,2.45.41,6.06,6.06,0,0,1,2,1.14,5.13,5.13,0,0,1,1.29,1.74,5.32,5.32,0,0,1,.46,2.23,5.22,5.22,0,0,1-.47,2.23,5.28,5.28,0,0,1-1.29,1.74,5.78,5.78,0,0,1-2,1.13,7.54,7.54,0,0,1-2.49.4,7.21,7.21,0,0,1-2.44-.4,5.63,5.63,0,0,1-1.93-1.14,5.3,5.3,0,0,1-1.27-1.77A5.55,5.55,0,0,1,226.83,599.79Zm3.82,0a2.32,2.32,0,0,0,.19,1,2.52,2.52,0,0,0,.5.75,2.21,2.21,0,0,0,.74.5,2.39,2.39,0,0,0,1.82,0,2.21,2.21,0,0,0,.74-.5,2.54,2.54,0,0,0,.5-.75,2.28,2.28,0,0,0,.19-.93,2.23,2.23,0,0,0-.19-.91,2.54,2.54,0,0,0-.5-.75,2.19,2.19,0,0,0-.74-.5,2.39,2.39,0,0,0-1.82,0,2.19,2.19,0,0,0-.74.5,2.57,2.57,0,0,0-.5.74A2.15,2.15,0,0,0,230.65,599.83Z"/><path d="M244.85,594.75v5.78a1.84,1.84,0,1,0,3.68,0v-5.78h3.62v6.48a3.67,3.67,0,0,1-1.37,3.12,8.57,8.57,0,0,1-8.18,0,3.67,3.67,0,0,1-1.37-3.12v-6.48Z"/><path d="M254.61,594.75h3.62v1.68a4.16,4.16,0,0,1,1.42-1.41,3.83,3.83,0,0,1,2-.49h.31a2.24,2.24,0,0,1,.39,0V598a3.44,3.44,0,0,0-1.56-.36,2.33,2.33,0,0,0-1.89.75,3.32,3.32,0,0,0-.63,2.19V605h-3.62Z"/><path d="M271.75,598.07a3.35,3.35,0,0,0-1.9-.64,2.59,2.59,0,0,0-1,.18,2.41,2.41,0,0,0-.79.51,2.35,2.35,0,0,0-.53.78,2.57,2.57,0,0,0-.19,1,2.51,2.51,0,0,0,.19,1,2.43,2.43,0,0,0,.52.78,2.27,2.27,0,0,0,.79.51,2.68,2.68,0,0,0,1,.18,3,3,0,0,0,1.9-.7v3.08a6.42,6.42,0,0,1-2.54.58,6,6,0,0,1-2.13-.38,5.41,5.41,0,0,1-1.78-1.09,5.35,5.35,0,0,1-1.23-1.7,5.18,5.18,0,0,1-.46-2.21,5.53,5.53,0,0,1,.44-2.23,5.36,5.36,0,0,1,1.2-1.74,5.42,5.42,0,0,1,1.81-1.14,6.13,6.13,0,0,1,2.25-.41,5.38,5.38,0,0,1,2.44.56Z"/><path d="M277.07,600.49q0,2.34,2.2,2.34a2,2,0,0,0,1.78-1h3.5q-1.06,3.52-5.3,3.52a7,7,0,0,1-2.38-.39,5.31,5.31,0,0,1-1.85-1.11,4.94,4.94,0,0,1-1.19-1.72,5.74,5.74,0,0,1-.42-2.24,6.33,6.33,0,0,1,.4-2.31,4.86,4.86,0,0,1,1.14-1.75,5,5,0,0,1,1.79-1.11,6.78,6.78,0,0,1,2.37-.39,6.63,6.63,0,0,1,2.34.39,4.75,4.75,0,0,1,1.76,1.13,4.93,4.93,0,0,1,1.1,1.81,7.18,7.18,0,0,1,.38,2.41v.38Zm4.24-2.1a2.18,2.18,0,0,0-.74-1.22,2.29,2.29,0,0,0-2.73,0,2,2,0,0,0-.67,1.24Z"/><path d="M305,605H292.87l3.74-3.88q1.48-1.54,2.32-2.61a14.28,14.28,0,0,0,1.25-1.81,4.76,4.76,0,0,0,.51-1.2,3.76,3.76,0,0,0,.1-.78,2,2,0,0,0-.11-.66,1.68,1.68,0,0,0-.33-.57,1.64,1.64,0,0,0-.53-.4,1.66,1.66,0,0,0-.73-.15,1.57,1.57,0,0,0-1.25.52,1.92,1.92,0,0,0-.45,1.3,4.91,4.91,0,0,0,.06.64h-4.28a6.42,6.42,0,0,1,.43-2.4,5.44,5.44,0,0,1,1.21-1.86,5.34,5.34,0,0,1,1.85-1.2,6.39,6.39,0,0,1,2.35-.42,6.58,6.58,0,0,1,2.33.4,5.57,5.57,0,0,1,1.85,1.12,5.15,5.15,0,0,1,1.22,1.71,5.24,5.24,0,0,1,.44,2.15,5,5,0,0,1-.53,2.29,8.05,8.05,0,0,1-1.69,2.15l-2.5,2.34H305Z"/><rect class="cls-6" x="26.5" y="584.02" width="105" height="62"/><rect class="cls-7" x="26.5" y="584.02" width="105" height="62"/><path d="M52.88,610.79A4.85,4.85,0,0,0,51.6,610a3.39,3.39,0,0,0-1.24-.25,2,2,0,0,0-1.24.36,1.12,1.12,0,0,0-.48.94.94.94,0,0,0,.24.66,2.11,2.11,0,0,0,.63.45,5.38,5.38,0,0,0,.88.33l1,.3a6.06,6.06,0,0,1,2.81,1.71,4.22,4.22,0,0,1,.89,2.79,5.43,5.43,0,0,1-.39,2.1A4.38,4.38,0,0,1,53.53,621a5.24,5.24,0,0,1-1.84,1,7.65,7.65,0,0,1-2.47.37,9.08,9.08,0,0,1-5.3-1.7l1.68-3.16a6.79,6.79,0,0,0,1.74,1.16,4.19,4.19,0,0,0,1.7.38,2,2,0,0,0,1.43-.44,1.36,1.36,0,0,0,.35-1.59,1.28,1.28,0,0,0-.4-.46,3.23,3.23,0,0,0-.73-.39l-1.09-.4q-.76-.24-1.49-.53a4.68,4.68,0,0,1-1.3-.77,3.57,3.57,0,0,1-.92-1.21,4.28,4.28,0,0,1-.35-1.85,5.34,5.34,0,0,1,.37-2,4.5,4.5,0,0,1,1-1.56,4.65,4.65,0,0,1,1.64-1,6.2,6.2,0,0,1,2.17-.36,9.53,9.53,0,0,1,2.34.31,10.32,10.32,0,0,1,2.34.91Z"/><path d="M56.78,616.79a5,5,0,0,1,.46-2.13,5.23,5.23,0,0,1,1.28-1.72,6.09,6.09,0,0,1,1.95-1.15,7.05,7.05,0,0,1,2.47-.42,7.13,7.13,0,0,1,2.45.41,6.06,6.06,0,0,1,2,1.14,5.13,5.13,0,0,1,1.29,1.74,5.32,5.32,0,0,1,.46,2.23,5.22,5.22,0,0,1-.47,2.23,5.28,5.28,0,0,1-1.29,1.74,5.78,5.78,0,0,1-2,1.13,7.54,7.54,0,0,1-2.49.4,7.21,7.21,0,0,1-2.44-.4,5.63,5.63,0,0,1-1.93-1.14,5.3,5.3,0,0,1-1.27-1.77A5.55,5.55,0,0,1,56.78,616.79Zm3.82,0a2.32,2.32,0,0,0,.19,1,2.52,2.52,0,0,0,.5.75,2.21,2.21,0,0,0,.74.5,2.39,2.39,0,0,0,1.82,0,2.21,2.21,0,0,0,.74-.5,2.54,2.54,0,0,0,.5-.75,2.28,2.28,0,0,0,.19-.93,2.23,2.23,0,0,0-.19-.91,2.54,2.54,0,0,0-.5-.75,2.19,2.19,0,0,0-.74-.5,2.39,2.39,0,0,0-1.82,0,2.19,2.19,0,0,0-.74.5,2.57,2.57,0,0,0-.5.74A2.15,2.15,0,0,0,60.6,616.83Z"/><path d="M74.8,611.75v5.78a1.84,1.84,0,1,0,3.68,0v-5.78H82.1v6.48a3.67,3.67,0,0,1-1.37,3.12,6.71,6.71,0,0,1-4.09,1,6.71,6.71,0,0,1-4.09-1,3.67,3.67,0,0,1-1.37-3.12v-6.48Z"/><path d="M84.56,611.75h3.62v1.68A4.16,4.16,0,0,1,89.6,612a3.83,3.83,0,0,1,2-.49h.31a2.24,2.24,0,0,1,.39,0V615a3.44,3.44,0,0,0-1.56-.36,2.33,2.33,0,0,0-1.89.75,3.32,3.32,0,0,0-.63,2.19V622H84.56Z"/><path d="M101.7,615.07a3.35,3.35,0,0,0-1.9-.64,2.59,2.59,0,0,0-1,.18,2.41,2.41,0,0,0-.79.51,2.35,2.35,0,0,0-.53.78,2.57,2.57,0,0,0-.19,1,2.51,2.51,0,0,0,.19,1,2.43,2.43,0,0,0,.52.78,2.27,2.27,0,0,0,.79.51,2.68,2.68,0,0,0,1,.18,3,3,0,0,0,1.9-.7v3.08a6.42,6.42,0,0,1-2.54.58,6,6,0,0,1-2.13-.38,5.41,5.41,0,0,1-1.78-1.09,5.35,5.35,0,0,1-1.23-1.7,5.18,5.18,0,0,1-.46-2.21,5.53,5.53,0,0,1,.44-2.23A5.36,5.36,0,0,1,95.2,613,5.42,5.42,0,0,1,97,611.84a6.13,6.13,0,0,1,2.25-.41,5.38,5.38,0,0,1,2.44.56Z"/><path d="M107,617.49q0,2.34,2.2,2.34a2,2,0,0,0,1.78-1h3.5q-1.06,3.52-5.3,3.52a7,7,0,0,1-2.38-.39,5.31,5.31,0,0,1-1.85-1.11,4.94,4.94,0,0,1-1.19-1.72,5.74,5.74,0,0,1-.42-2.24,6.33,6.33,0,0,1,.4-2.31,4.86,4.86,0,0,1,1.14-1.75,5,5,0,0,1,1.79-1.11,6.78,6.78,0,0,1,2.37-.39,6.63,6.63,0,0,1,2.34.39,4.75,4.75,0,0,1,1.76,1.13,4.93,4.93,0,0,1,1.1,1.81,7.18,7.18,0,0,1,.38,2.41v.38Zm4.24-2.1a2.18,2.18,0,0,0-.74-1.22,2.29,2.29,0,0,0-2.73,0,2,2,0,0,0-.67,1.24Z"/><rect class="cls-6" x="373.5" y="567.02" width="105" height="62"/><rect class="cls-7" x="373.5" y="567.02" width="105" height="62"/><path d="M389.35,593.79a4.85,4.85,0,0,0-1.28-.77,3.39,3.39,0,0,0-1.24-.25,2,2,0,0,0-1.24.36,1.12,1.12,0,0,0-.48.94.93.93,0,0,0,.24.66,2.1,2.1,0,0,0,.63.45,5.38,5.38,0,0,0,.88.33l1,.3a6.06,6.06,0,0,1,2.81,1.71,4.22,4.22,0,0,1,.89,2.79,5.44,5.44,0,0,1-.39,2.1A4.4,4.4,0,0,1,390,604a5.24,5.24,0,0,1-1.84,1,7.65,7.65,0,0,1-2.47.37,9.08,9.08,0,0,1-5.3-1.7l1.68-3.16a6.78,6.78,0,0,0,1.74,1.16,4.19,4.19,0,0,0,1.7.38,2,2,0,0,0,1.43-.44,1.36,1.36,0,0,0,.35-1.59,1.28,1.28,0,0,0-.4-.46,3.25,3.25,0,0,0-.73-.39l-1.09-.4q-.76-.24-1.49-.53a4.68,4.68,0,0,1-1.3-.77,3.58,3.58,0,0,1-.92-1.21,4.28,4.28,0,0,1-.35-1.85,5.36,5.36,0,0,1,.37-2,4.52,4.52,0,0,1,1-1.56,4.65,4.65,0,0,1,1.64-1,6.19,6.19,0,0,1,2.17-.36,9.53,9.53,0,0,1,2.34.31,10.32,10.32,0,0,1,2.34.91Z"/><path d="M393.25,599.79a5,5,0,0,1,.46-2.13,5.23,5.23,0,0,1,1.28-1.72,6.1,6.1,0,0,1,2-1.15,7,7,0,0,1,2.47-.42,7.13,7.13,0,0,1,2.45.41,6.06,6.06,0,0,1,2,1.14,5.12,5.12,0,0,1,1.29,1.74,5.32,5.32,0,0,1,.46,2.23,5.23,5.23,0,0,1-.47,2.23,5.3,5.3,0,0,1-1.29,1.74,5.79,5.79,0,0,1-2,1.13,7.53,7.53,0,0,1-2.49.4,7.2,7.2,0,0,1-2.44-.4,5.63,5.63,0,0,1-1.93-1.14,5.3,5.3,0,0,1-1.27-1.77A5.55,5.55,0,0,1,393.25,599.79Zm3.82,0a2.32,2.32,0,0,0,.19,1,2.55,2.55,0,0,0,.5.75,2.21,2.21,0,0,0,.74.5,2.39,2.39,0,0,0,1.82,0,2.22,2.22,0,0,0,.74-.5,2.55,2.55,0,0,0,.5-.75,2.29,2.29,0,0,0,.19-.93,2.24,2.24,0,0,0-.19-.91,2.55,2.55,0,0,0-.5-.75,2.2,2.2,0,0,0-.74-.5,2.39,2.39,0,0,0-1.82,0,2.19,2.19,0,0,0-.74.5,2.59,2.59,0,0,0-.5.74A2.15,2.15,0,0,0,397.07,599.83Z"/><path d="M411.27,594.75v5.78a1.84,1.84,0,1,0,3.68,0v-5.78h3.62v6.48a3.67,3.67,0,0,1-1.37,3.12,8.57,8.57,0,0,1-8.18,0,3.67,3.67,0,0,1-1.37-3.12v-6.48Z"/><path d="M421,594.75h3.62v1.68a4.14,4.14,0,0,1,1.42-1.41,3.82,3.82,0,0,1,2-.49h.31a2.25,2.25,0,0,1,.39,0V598a3.44,3.44,0,0,0-1.56-.36,2.33,2.33,0,0,0-1.89.75,3.32,3.32,0,0,0-.63,2.19V605H421Z"/><path d="M438.16,598.07a3.35,3.35,0,0,0-1.9-.64,2.58,2.58,0,0,0-1,.18,2.4,2.4,0,0,0-.79.51,2.35,2.35,0,0,0-.53.78,2.57,2.57,0,0,0-.19,1,2.51,2.51,0,0,0,.19,1,2.44,2.44,0,0,0,.52.78,2.29,2.29,0,0,0,.79.51,2.69,2.69,0,0,0,1,.18,3,3,0,0,0,1.9-.7v3.08a6.42,6.42,0,0,1-2.54.58,6,6,0,0,1-2.13-.38,5.41,5.41,0,0,1-1.78-1.09,5.34,5.34,0,0,1-1.23-1.7,5.18,5.18,0,0,1-.46-2.21,5.52,5.52,0,0,1,.44-2.23,5.34,5.34,0,0,1,1.2-1.74,5.41,5.41,0,0,1,1.81-1.14,6.13,6.13,0,0,1,2.25-.41,5.39,5.39,0,0,1,2.44.56Z"/><path d="M443.48,600.49q0,2.34,2.2,2.34a2,2,0,0,0,1.78-1H451q-1.06,3.52-5.3,3.52a7,7,0,0,1-2.38-.39,5.31,5.31,0,0,1-1.85-1.11,4.94,4.94,0,0,1-1.19-1.72,5.75,5.75,0,0,1-.42-2.24,6.32,6.32,0,0,1,.4-2.31,4.86,4.86,0,0,1,1.14-1.75,5,5,0,0,1,1.79-1.11,6.78,6.78,0,0,1,2.37-.39,6.63,6.63,0,0,1,2.34.39,4.74,4.74,0,0,1,1.76,1.13,4.93,4.93,0,0,1,1.1,1.81,7.18,7.18,0,0,1,.38,2.41v.38Zm4.24-2.1a2.18,2.18,0,0,0-.74-1.22,2.29,2.29,0,0,0-2.73,0,2,2,0,0,0-.67,1.24Z"/><path d="M460,594.75h3.62V596a4,4,0,0,1,1.5-1.21,4.68,4.68,0,0,1,1.78-.31,4.46,4.46,0,0,1,1.85.35,3.71,3.71,0,0,1,1.31,1,2.87,2.87,0,0,1,.6,1.16,6.06,6.06,0,0,1,.16,1.46V605h-3.62v-5.18a5.57,5.57,0,0,0-.11-1.23,1.52,1.52,0,0,0-.39-.75,1.37,1.37,0,0,0-.54-.34,2,2,0,0,0-.64-.1,1.79,1.79,0,0,0-1.41.55,2.29,2.29,0,0,0-.49,1.57V605H460Z"/><rect class="cls-6" x="40.5" y="567.02" width="105" height="62"/><rect class="cls-7" x="40.5" y="567.02" width="105" height="62"/><path d="M56.68,593.79A4.85,4.85,0,0,0,55.4,593a3.39,3.39,0,0,0-1.24-.25,2,2,0,0,0-1.24.36,1.12,1.12,0,0,0-.48.94.94.94,0,0,0,.24.66,2.11,2.11,0,0,0,.63.45,5.38,5.38,0,0,0,.88.33l1,.3A6.06,6.06,0,0,1,58,597.52a4.22,4.22,0,0,1,.89,2.79,5.43,5.43,0,0,1-.39,2.1A4.38,4.38,0,0,1,57.33,604a5.24,5.24,0,0,1-1.84,1,7.65,7.65,0,0,1-2.47.37,9.08,9.08,0,0,1-5.3-1.7l1.68-3.16a6.79,6.79,0,0,0,1.74,1.16,4.19,4.19,0,0,0,1.7.38,2,2,0,0,0,1.43-.44,1.36,1.36,0,0,0,.35-1.59,1.28,1.28,0,0,0-.4-.46,3.23,3.23,0,0,0-.73-.39l-1.09-.4q-.76-.24-1.49-.53a4.68,4.68,0,0,1-1.3-.77,3.57,3.57,0,0,1-.92-1.21,4.28,4.28,0,0,1-.35-1.85,5.34,5.34,0,0,1,.37-2,4.5,4.5,0,0,1,1-1.56,4.65,4.65,0,0,1,1.64-1,6.2,6.2,0,0,1,2.17-.36,9.53,9.53,0,0,1,2.34.31,10.32,10.32,0,0,1,2.34.91Z"/><path d="M60.58,599.79a5,5,0,0,1,.46-2.13,5.23,5.23,0,0,1,1.28-1.72,6.09,6.09,0,0,1,1.95-1.15,7.05,7.05,0,0,1,2.47-.42,7.13,7.13,0,0,1,2.45.41,6.06,6.06,0,0,1,2,1.14,5.13,5.13,0,0,1,1.29,1.74,5.32,5.32,0,0,1,.46,2.23,5.22,5.22,0,0,1-.47,2.23,5.28,5.28,0,0,1-1.29,1.74,5.78,5.78,0,0,1-2,1.13,7.54,7.54,0,0,1-2.49.4,7.21,7.21,0,0,1-2.44-.4,5.63,5.63,0,0,1-1.93-1.14A5.3,5.3,0,0,1,61,602.08,5.55,5.55,0,0,1,60.58,599.79Zm3.82,0a2.32,2.32,0,0,0,.19,1,2.52,2.52,0,0,0,.5.75,2.21,2.21,0,0,0,.74.5,2.39,2.39,0,0,0,1.82,0,2.21,2.21,0,0,0,.74-.5,2.54,2.54,0,0,0,.5-.75,2.28,2.28,0,0,0,.19-.93,2.23,2.23,0,0,0-.19-.91,2.54,2.54,0,0,0-.5-.75,2.19,2.19,0,0,0-.74-.5,2.39,2.39,0,0,0-1.82,0,2.19,2.19,0,0,0-.74.5,2.57,2.57,0,0,0-.5.74A2.15,2.15,0,0,0,64.4,599.83Z"/><path d="M78.6,594.75v5.78a1.84,1.84,0,1,0,3.68,0v-5.78H85.9v6.48a3.67,3.67,0,0,1-1.37,3.12,6.71,6.71,0,0,1-4.09,1,6.71,6.71,0,0,1-4.09-1A3.67,3.67,0,0,1,75,601.23v-6.48Z"/><path d="M88.36,594.75H92v1.68A4.16,4.16,0,0,1,93.4,595a3.83,3.83,0,0,1,2-.49h.31a2.24,2.24,0,0,1,.39,0V598a3.44,3.44,0,0,0-1.56-.36,2.33,2.33,0,0,0-1.89.75,3.32,3.32,0,0,0-.63,2.19V605H88.36Z"/><path d="M105.5,598.07a3.35,3.35,0,0,0-1.9-.64,2.59,2.59,0,0,0-1,.18,2.41,2.41,0,0,0-.79.51,2.35,2.35,0,0,0-.53.78,2.57,2.57,0,0,0-.19,1,2.51,2.51,0,0,0,.19,1,2.43,2.43,0,0,0,.52.78,2.27,2.27,0,0,0,.79.51,2.68,2.68,0,0,0,1,.18,3,3,0,0,0,1.9-.7v3.08a6.42,6.42,0,0,1-2.54.58,6,6,0,0,1-2.13-.38,5.41,5.41,0,0,1-1.78-1.09,5.35,5.35,0,0,1-1.23-1.7,5.18,5.18,0,0,1-.46-2.21,5.53,5.53,0,0,1,.44-2.23A5.36,5.36,0,0,1,99,596a5.42,5.42,0,0,1,1.81-1.14,6.13,6.13,0,0,1,2.25-.41,5.38,5.38,0,0,1,2.44.56Z"/><path d="M110.82,600.49q0,2.34,2.2,2.34a2,2,0,0,0,1.78-1h3.5q-1.06,3.52-5.3,3.52a7,7,0,0,1-2.38-.39,5.31,5.31,0,0,1-1.85-1.11,4.94,4.94,0,0,1-1.19-1.72,5.74,5.74,0,0,1-.42-2.24,6.33,6.33,0,0,1,.4-2.31,4.86,4.86,0,0,1,1.14-1.75,5,5,0,0,1,1.79-1.11,6.78,6.78,0,0,1,2.37-.39,6.63,6.63,0,0,1,2.34.39,4.75,4.75,0,0,1,1.76,1.13,4.93,4.93,0,0,1,1.1,1.81,7.18,7.18,0,0,1,.38,2.41v.38Zm4.24-2.1a2.18,2.18,0,0,0-.74-1.22,2.29,2.29,0,0,0-2.73,0,2,2,0,0,0-.67,1.24Z"/><path d="M131.36,593.25h-2.2v-3.32h6.12V605h-3.92Z"/><rect class="cls-5" x="31.5" y="452.02" width="123" height="66"/><path class="cls-3" d="M49.83,489.39h-5.6l-.9,2.62H39.15l5.74-15.08h4.28L54.91,492H50.73Zm-1-3-1.76-5-1.76,5Z"/><path class="cls-3" d="M64.17,475.41h3.64V492H64.17v-1.14A3.8,3.8,0,0,1,61,492.33a5,5,0,0,1-2.06-.42,5.11,5.11,0,0,1-1.64-1.16A5.33,5.33,0,0,1,56.24,489a6.13,6.13,0,0,1,0-4.25,5.25,5.25,0,0,1,1-1.73,5,5,0,0,1,3.72-1.6,4.18,4.18,0,0,1,3.18,1.34Zm-4.56,11.44a2.39,2.39,0,0,0,.67,1.68,2.21,2.21,0,0,0,.74.5,2.38,2.38,0,0,0,.93.18,2.33,2.33,0,0,0,.91-.18,2.21,2.21,0,0,0,.74-.5,2.58,2.58,0,0,0,.5-.74,2.15,2.15,0,0,0,.19-.9,2.22,2.22,0,0,0-.19-.91,2.57,2.57,0,0,0-.5-.75,2.19,2.19,0,0,0-.74-.5,2.38,2.38,0,0,0-1.82,0,2.19,2.19,0,0,0-.74.5,2.62,2.62,0,0,0-.5.73A2.09,2.09,0,0,0,59.61,486.85Z"/><path class="cls-3" d="M78.19,481.75h3.64V492H78.19v-1.14a3.8,3.8,0,0,1-3.14,1.46,5.11,5.11,0,0,1-2.06-.41,5,5,0,0,1-1.64-1.15A5.31,5.31,0,0,1,70.26,489a6,6,0,0,1-.39-2.18,5.78,5.78,0,0,1,.38-2.09A5.38,5.38,0,0,1,71.31,483a5,5,0,0,1,1.62-1.17,4.93,4.93,0,0,1,2.08-.43,4.18,4.18,0,0,1,3.18,1.34Zm-4.56,5.1a2.39,2.39,0,0,0,.67,1.68,2.21,2.21,0,0,0,.74.5,2.38,2.38,0,0,0,.93.18,2.33,2.33,0,0,0,.91-.18,2.21,2.21,0,0,0,.74-.5,2.58,2.58,0,0,0,.5-.74,2.15,2.15,0,0,0,.19-.9,2.22,2.22,0,0,0-.19-.91,2.57,2.57,0,0,0-.5-.75,2.19,2.19,0,0,0-.74-.5,2.33,2.33,0,0,0-.91-.18,2.38,2.38,0,0,0-.93.18,2.19,2.19,0,0,0-.74.5,2.46,2.46,0,0,0-.49.73A2.2,2.2,0,0,0,73.63,486.85Z"/><path class="cls-3" d="M87.91,497.13H84.29V481.75h3.62v1.14a3.82,3.82,0,0,1,3.16-1.46,4.91,4.91,0,0,1,2,.43A5.21,5.21,0,0,1,94.77,483a5.32,5.32,0,0,1,1.09,1.74,5.84,5.84,0,0,1,.39,2.14,5.68,5.68,0,0,1-.39,2.12,5.47,5.47,0,0,1-1.08,1.72,5,5,0,0,1-1.63,1.16,4.94,4.94,0,0,1-2,.42,4.28,4.28,0,0,1-3.2-1.32Zm4.56-10.22a2.45,2.45,0,0,0-.17-.91,2.17,2.17,0,0,0-.49-.75,2.45,2.45,0,0,0-.75-.51,2.29,2.29,0,0,0-.93-.19,2.26,2.26,0,0,0-.9.18,2.21,2.21,0,0,0-.73.5,2.55,2.55,0,0,0-.5.75,2.22,2.22,0,0,0-.19.91,2.26,2.26,0,0,0,.18.9,2.23,2.23,0,0,0,.5.73,2.54,2.54,0,0,0,.75.5,2.22,2.22,0,0,0,.91.19,2.25,2.25,0,0,0,1.63-.68,2.58,2.58,0,0,0,.5-.74A2.11,2.11,0,0,0,92.47,486.91Z"/><path class="cls-3" d="M102.49,484.77V492H98.87v-7.24h-1.2v-3h1.2v-3.08h3.62v3.08h2.06v3Z"/><path class="cls-3" d="M109.37,487.49q0,2.34,2.2,2.34a2,2,0,0,0,1.78-1h3.5q-1.06,3.52-5.3,3.52a7,7,0,0,1-2.38-.39,5.31,5.31,0,0,1-1.85-1.11,4.94,4.94,0,0,1-1.19-1.72,5.74,5.74,0,0,1-.42-2.24,6.33,6.33,0,0,1,.4-2.31,4.86,4.86,0,0,1,1.14-1.75,5,5,0,0,1,1.79-1.11,6.78,6.78,0,0,1,2.37-.39,6.63,6.63,0,0,1,2.34.39,4.75,4.75,0,0,1,1.76,1.13,4.93,4.93,0,0,1,1.1,1.81,7.18,7.18,0,0,1,.38,2.41v.38Zm4.24-2.1a2.18,2.18,0,0,0-.74-1.22,2.29,2.29,0,0,0-2.73,0,2,2,0,0,0-.67,1.24Z"/><path class="cls-3" d="M119.05,481.75h3.62v1.68a4.16,4.16,0,0,1,1.42-1.41,3.83,3.83,0,0,1,2-.49h.31a2.24,2.24,0,0,1,.39,0V485a3.44,3.44,0,0,0-1.56-.36,2.33,2.33,0,0,0-1.89.75,3.32,3.32,0,0,0-.63,2.19V492h-3.62Z"/><path class="cls-3" d="M139.21,480.25H137v-3.32h6.12V492h-3.92Z"/><line class="cls-8" x1="426" y1="566.52" x2="426" y2="533.42"/><polygon class="cls-9" points="426 522.22 421.81 533.42 430.2 533.42 426 522.22"/><polygon class="cls-10" points="426 522.22 421.81 533.42 430.2 533.42 426 522.22"/><line class="cls-8" x1="93" y1="566.52" x2="93" y2="533.42"/><polygon class="cls-9" points="93 522.22 88.81 533.42 97.2 533.42 93 522.22"/><polygon class="cls-10" points="93 522.22 88.81 533.42 97.2 533.42 93 522.22"/><line class="cls-8" x1="364" y1="451.65" x2="203.1" y2="365.99"/><polygon class="cls-9" points="193.22 360.73 201.13 369.7 205.08 362.28 193.22 360.73"/><polygon class="cls-10" points="193.22 360.73 201.13 369.7 205.08 362.28 193.22 360.73"/><line class="cls-8" x1="98.79" y1="451.52" x2="111.75" y2="374.2"/><polygon class="cls-9" points="113.61 363.15 107.61 373.51 115.9 374.89 113.61 363.15"/><polygon class="cls-10" points="113.61 363.15 107.61 373.51 115.9 374.89 113.61 363.15"/><line class="cls-8" x1="206.09" y1="240.52" x2="170.35" y2="274.55"/><polygon class="cls-9" points="162.24 282.28 173.24 277.6 167.45 271.51 162.24 282.28"/><polygon class="cls-10" points="162.24 282.28 173.24 277.6 167.45 271.51 162.24 282.28"/><line class="cls-8" x1="312.78" y1="240.52" x2="344.72" y2="274.01"/><polygon class="cls-9" points="352.45 282.12 347.76 271.11 341.69 276.91 352.45 282.12"/><polygon class="cls-10" points="352.45 282.12 347.76 271.11 341.69 276.91 352.45 282.12"/><line class="cls-8" x1="260.18" y1="89.52" x2="260.72" y2="118.12"/><polygon class="cls-9" points="260.93 129.32 264.92 118.04 256.52 118.2 260.93 129.32"/><polygon class="cls-10" points="260.93 129.32 264.92 118.04 256.52 118.2 260.93 129.32"/><rect class="cls-5" x="197.5" y="452.02" width="124" height="66"/><path class="cls-3" d="M216.08,489.39h-5.6l-.9,2.62H205.4l5.74-15.08h4.28L221.16,492H217Zm-1-3-1.76-5-1.76,5Z"/><path class="cls-3" d="M230.42,475.41h3.64V492h-3.64v-1.14a3.8,3.8,0,0,1-3.14,1.46,5,5,0,0,1-2.06-.42,5.11,5.11,0,0,1-1.64-1.16,5.33,5.33,0,0,1-1.09-1.74,6.13,6.13,0,0,1,0-4.25,5.25,5.25,0,0,1,1-1.73,5,5,0,0,1,3.72-1.6,4.18,4.18,0,0,1,3.18,1.34Zm-4.56,11.44a2.39,2.39,0,0,0,.67,1.68,2.21,2.21,0,0,0,.74.5,2.38,2.38,0,0,0,.93.18,2.33,2.33,0,0,0,.91-.18,2.21,2.21,0,0,0,.74-.5,2.58,2.58,0,0,0,.5-.74,2.15,2.15,0,0,0,.19-.9,2.22,2.22,0,0,0-.19-.91,2.57,2.57,0,0,0-.5-.75,2.19,2.19,0,0,0-.74-.5,2.38,2.38,0,0,0-1.82,0,2.19,2.19,0,0,0-.74.5,2.62,2.62,0,0,0-.5.73A2.09,2.09,0,0,0,225.86,486.85Z"/><path class="cls-3" d="M244.44,481.75h3.64V492h-3.64v-1.14a3.8,3.8,0,0,1-3.14,1.46,5.11,5.11,0,0,1-2.06-.41,5,5,0,0,1-1.64-1.15,5.31,5.31,0,0,1-1.09-1.74,6,6,0,0,1-.39-2.18,5.78,5.78,0,0,1,.38-2.09,5.38,5.38,0,0,1,1.06-1.73,5,5,0,0,1,1.62-1.17,4.93,4.93,0,0,1,2.08-.43,4.18,4.18,0,0,1,3.18,1.34Zm-4.56,5.1a2.39,2.39,0,0,0,.67,1.68,2.21,2.21,0,0,0,.74.5,2.38,2.38,0,0,0,.93.18,2.33,2.33,0,0,0,.91-.18,2.21,2.21,0,0,0,.74-.5,2.58,2.58,0,0,0,.5-.74,2.15,2.15,0,0,0,.19-.9,2.22,2.22,0,0,0-.19-.91,2.57,2.57,0,0,0-.5-.75,2.19,2.19,0,0,0-.74-.5,2.33,2.33,0,0,0-.91-.18,2.38,2.38,0,0,0-.93.18,2.19,2.19,0,0,0-.74.5,2.46,2.46,0,0,0-.49.73A2.2,2.2,0,0,0,239.88,486.85Z"/><path class="cls-3" d="M254.16,497.13h-3.62V481.75h3.62v1.14a3.82,3.82,0,0,1,3.16-1.46,4.91,4.91,0,0,1,2,.43A5.21,5.21,0,0,1,261,483a5.32,5.32,0,0,1,1.09,1.74,5.84,5.84,0,0,1,.39,2.14,5.68,5.68,0,0,1-.39,2.12,5.47,5.47,0,0,1-1.08,1.72,5,5,0,0,1-1.63,1.16,4.94,4.94,0,0,1-2,.42,4.28,4.28,0,0,1-3.2-1.32Zm4.56-10.22a2.45,2.45,0,0,0-.17-.91,2.17,2.17,0,0,0-.49-.75,2.45,2.45,0,0,0-.75-.51,2.29,2.29,0,0,0-.93-.19,2.26,2.26,0,0,0-.9.18,2.21,2.21,0,0,0-.73.5,2.55,2.55,0,0,0-.5.75,2.22,2.22,0,0,0-.19.91,2.26,2.26,0,0,0,.18.9,2.23,2.23,0,0,0,.5.73,2.54,2.54,0,0,0,.75.5,2.22,2.22,0,0,0,.91.19,2.25,2.25,0,0,0,1.63-.68,2.58,2.58,0,0,0,.5-.74A2.11,2.11,0,0,0,258.72,486.91Z"/><path class="cls-3" d="M268.74,484.77V492h-3.62v-7.24h-1.2v-3h1.2v-3.08h3.62v3.08h2.06v3Z"/><path class="cls-3" d="M275.62,487.49q0,2.34,2.2,2.34a2,2,0,0,0,1.78-1h3.5q-1.06,3.52-5.3,3.52a7,7,0,0,1-2.38-.39,5.31,5.31,0,0,1-1.85-1.11,4.94,4.94,0,0,1-1.19-1.72,5.74,5.74,0,0,1-.42-2.24,6.33,6.33,0,0,1,.4-2.31,4.86,4.86,0,0,1,1.14-1.75,5,5,0,0,1,1.79-1.11,6.78,6.78,0,0,1,2.37-.39,6.63,6.63,0,0,1,2.34.39,4.75,4.75,0,0,1,1.76,1.13,4.93,4.93,0,0,1,1.1,1.81,7.18,7.18,0,0,1,.38,2.41v.38Zm4.24-2.1a2.18,2.18,0,0,0-.74-1.22,2.29,2.29,0,0,0-2.73,0,2,2,0,0,0-.67,1.24Z"/><path class="cls-3" d="M285.3,481.75h3.62v1.68a4.16,4.16,0,0,1,1.42-1.41,3.83,3.83,0,0,1,2-.49h.31a2.24,2.24,0,0,1,.39,0V485a3.44,3.44,0,0,0-1.56-.36,2.33,2.33,0,0,0-1.89.75,3.32,3.32,0,0,0-.63,2.19V492H285.3Z"/><path class="cls-3" d="M312.86,492H300.72l3.74-3.88q1.48-1.54,2.32-2.61a14.28,14.28,0,0,0,1.25-1.81,4.76,4.76,0,0,0,.51-1.2,3.76,3.76,0,0,0,.1-.78,2,2,0,0,0-.11-.66,1.68,1.68,0,0,0-.33-.57,1.64,1.64,0,0,0-.53-.4,1.66,1.66,0,0,0-.73-.15,1.57,1.57,0,0,0-1.25.52,1.92,1.92,0,0,0-.45,1.3,4.91,4.91,0,0,0,.06.64H301a6.42,6.42,0,0,1,.43-2.4,5.44,5.44,0,0,1,1.21-1.86,5.34,5.34,0,0,1,1.85-1.2,6.39,6.39,0,0,1,2.35-.42,6.58,6.58,0,0,1,2.33.4A5.57,5.57,0,0,1,311,478a5.15,5.15,0,0,1,1.22,1.71,5.24,5.24,0,0,1,.44,2.15,5,5,0,0,1-.53,2.29,8.05,8.05,0,0,1-1.69,2.15l-2.5,2.34h4.88Z"/><line class="cls-8" x1="260" y1="566.52" x2="260" y2="533.42"/><polygon class="cls-9" points="260 522.22 255.81 533.42 264.2 533.42 260 522.22"/><polygon class="cls-10" points="260 522.22 255.81 533.42 264.2 533.42 260 522.22"/><line class="cls-8" x1="231.28" y1="451.52" x2="162.06" y2="370.6"/><polygon class="cls-9" points="154.78 362.09 158.87 373.33 165.25 367.87 154.78 362.09"/><polygon class="cls-10" points="154.78 362.09 158.87 373.33 165.25 367.87 154.78 362.09"/><line class="cls-8" x1="286.11" y1="451.52" x2="351.1" y2="370.9"/><polygon class="cls-9" points="358.13 362.18 347.83 368.26 354.37 373.53 358.13 362.18"/><polygon class="cls-10" points="358.13 362.18 347.83 368.26 354.37 373.53 358.13 362.18"/><line class="cls-8" x1="418.6" y1="451.52" x2="401.79" y2="374.06"/><polygon class="cls-9" points="399.42 363.11 397.69 374.95 405.9 373.17 399.42 363.11"/><polygon class="cls-10" points="399.42 363.11 397.69 374.95 405.9 373.17 399.42 363.11"/><line class="cls-8" x1="153.62" y1="451.52" x2="309.79" y2="366.15"/><polygon class="cls-9" points="319.61 360.77 307.77 362.46 311.8 369.83 319.61 360.77"/><polygon class="cls-10" points="319.61 360.77 307.77 362.46 311.8 369.83 319.61 360.77"/><rect class="cls-1" x="280.5" y="189.02" width="118" height="38"/><rect class="cls-11" x="280.5" y="189.02" width="118" height="38"/><path class="cls-3" d="M299.67,207.07h7.78a21.69,21.69,0,0,1-.1,2.18,7.74,7.74,0,0,1-.4,1.82,7.28,7.28,0,0,1-1.14,2.09,6.67,6.67,0,0,1-1.69,1.52,7.92,7.92,0,0,1-2.13.93,9.12,9.12,0,0,1-2.44.32,8.57,8.57,0,0,1-3.21-.58,7.24,7.24,0,0,1-2.49-1.63,7.39,7.39,0,0,1-1.62-2.52,9.41,9.41,0,0,1,0-6.48,7.09,7.09,0,0,1,1.62-2.51,7.36,7.36,0,0,1,2.53-1.62,9,9,0,0,1,3.3-.58,8.19,8.19,0,0,1,4.14,1,7.07,7.07,0,0,1,2.82,3.16l-3.72,1.54a3.78,3.78,0,0,0-1.35-1.78,3.39,3.39,0,0,0-1.89-.54,3.78,3.78,0,0,0-1.6.33,3.47,3.47,0,0,0-1.23.94,4.51,4.51,0,0,0-.8,1.47,6,6,0,0,0-.29,1.92,6.07,6.07,0,0,0,.25,1.78,4,4,0,0,0,.75,1.42,3.38,3.38,0,0,0,1.24.93,4.19,4.19,0,0,0,1.72.33,4.76,4.76,0,0,0,1.12-.13,2.94,2.94,0,0,0,1-.42,2.37,2.37,0,0,0,.71-.75,3,3,0,0,0,.38-1.12h-3.22Z"/><path class="cls-3" d="M309.59,205.25h3.62v1.68a4.17,4.17,0,0,1,1.42-1.41,3.83,3.83,0,0,1,2-.49h.31a2.24,2.24,0,0,1,.39,0v3.46a3.45,3.45,0,0,0-1.56-.36,2.33,2.33,0,0,0-1.89.75,3.32,3.32,0,0,0-.63,2.19v4.4h-3.62Z"/><path class="cls-3" d="M327,205.25h3.64v10.26H327v-1.14a3.8,3.8,0,0,1-3.14,1.46,5.09,5.09,0,0,1-2.06-.41,5,5,0,0,1-1.64-1.15,5.31,5.31,0,0,1-1.09-1.74,6,6,0,0,1-.39-2.18,5.78,5.78,0,0,1,.38-2.09,5.38,5.38,0,0,1,1.06-1.73,5,5,0,0,1,1.62-1.17,5,5,0,0,1,2.08-.43,4.18,4.18,0,0,1,3.18,1.34Zm-4.56,5.1a2.39,2.39,0,0,0,.67,1.68,2.18,2.18,0,0,0,.74.5,2.39,2.39,0,0,0,.93.18,2.32,2.32,0,0,0,.91-.18,2.18,2.18,0,0,0,.74-.5,2.58,2.58,0,0,0,.5-.74,2.16,2.16,0,0,0,.19-.9,2.22,2.22,0,0,0-.19-.91,2.56,2.56,0,0,0-.5-.75,2.21,2.21,0,0,0-.74-.5,2.32,2.32,0,0,0-.91-.18,2.39,2.39,0,0,0-.93.18,2.21,2.21,0,0,0-.74.5,2.47,2.47,0,0,0-.49.73A2.19,2.19,0,0,0,322.39,210.35Z"/><path class="cls-3" d="M336.67,220.63h-3.62V205.25h3.62v1.14a3.82,3.82,0,0,1,3.16-1.46,4.93,4.93,0,0,1,2.05.43,5.23,5.23,0,0,1,1.65,1.17,5.32,5.32,0,0,1,1.09,1.74,5.82,5.82,0,0,1,.39,2.14,5.66,5.66,0,0,1-.39,2.12,5.44,5.44,0,0,1-1.08,1.72,5,5,0,0,1-3.67,1.58,4.27,4.27,0,0,1-3.2-1.32Zm4.56-10.22a2.45,2.45,0,0,0-.17-.91,2.18,2.18,0,0,0-.49-.75,2.43,2.43,0,0,0-.75-.51,2.36,2.36,0,0,0-1.83,0,2.23,2.23,0,0,0-.73.5,2.54,2.54,0,0,0-.5.75,2.22,2.22,0,0,0-.19.91,2.26,2.26,0,0,0,.18.9,2.2,2.2,0,0,0,.5.73,2.51,2.51,0,0,0,.75.5,2.22,2.22,0,0,0,.91.19,2.26,2.26,0,0,0,.9-.18,2.21,2.21,0,0,0,.73-.5,2.6,2.6,0,0,0,.5-.74A2.12,2.12,0,0,0,341.23,210.41Z"/><path class="cls-3" d="M347.07,198.91h3.62v7.64a4,4,0,0,1,1.5-1.21A4.68,4.68,0,0,1,354,205a3.8,3.8,0,0,1,2.93,1.07,4.09,4.09,0,0,1,1,2.89v6.52h-3.62v-5.18a5.37,5.37,0,0,0-.12-1.26,1.47,1.47,0,0,0-.4-.74,1.7,1.7,0,0,0-1.16-.42,1.79,1.79,0,0,0-1.41.55,2.28,2.28,0,0,0-.49,1.57v5.48h-3.62Z"/><path class="cls-3" d="M360,208a7.77,7.77,0,0,1,5-7.35,9.58,9.58,0,0,1,6.73,0,7.94,7.94,0,0,1,2.65,1.69,7.74,7.74,0,0,1,1.73,2.53,7.88,7.88,0,0,1,.62,3.13,8.09,8.09,0,0,1-.51,2.9,7.31,7.31,0,0,1-1.47,2.38l2.56,2.68-3.6.56-1.38-1.42a10,10,0,0,1-1.87.63,9.27,9.27,0,0,1-2.09.23,9,9,0,0,1-3.37-.61,7.8,7.8,0,0,1-5-7.35Zm4.1,0a4,4,0,0,0,.34,1.66,4.2,4.2,0,0,0,.92,1.32,4.15,4.15,0,0,0,1.35.87,4.31,4.31,0,0,0,1.63.31,4.61,4.61,0,0,0,1-.12l-2.24-2.36,3.7-.46,1,1.1a3.87,3.87,0,0,0,.72-2.32,4,4,0,0,0-.34-1.66,4.12,4.12,0,0,0-.93-1.32,4.26,4.26,0,0,0-1.36-.87,4.43,4.43,0,0,0-3.26,0,4.14,4.14,0,0,0-1.35.87,4.19,4.19,0,0,0-.92,1.32A4,4,0,0,0,364.11,208Z"/><path class="cls-3" d="M383.11,200.43v11.76h4.7v3.32h-8.62V200.43Z"/><rect class="cls-1" x="121.5" y="189.02" width="105" height="38"/><rect class="cls-11" x="121.5" y="189.02" width="105" height="38"/><path class="cls-3" d="M149.83,215.51H145l-3.74-5.8v5.8h-3.92V200.43h6.1a6,6,0,0,1,2.2.37,4.14,4.14,0,0,1,2.47,2.49,5.16,5.16,0,0,1,.31,1.8,4.42,4.42,0,0,1-.83,2.79,4.19,4.19,0,0,1-2.45,1.45Zm-8.62-8.34H142a2.86,2.86,0,0,0,1.78-.48,1.85,1.85,0,0,0,0-2.76,2.86,2.86,0,0,0-1.78-.48h-.74Z"/><path class="cls-3" d="M160.06,203.75h-4.66v2.52h4.4v3.32h-4.4v2.6h4.66v3.32h-8.58V200.43h8.58Z"/><path class="cls-3" d="M171.15,204.29a4.86,4.86,0,0,0-1.28-.77,3.41,3.41,0,0,0-1.24-.25,2,2,0,0,0-1.24.36,1.12,1.12,0,0,0-.48.94.93.93,0,0,0,.24.66,2.09,2.09,0,0,0,.63.45,5.29,5.29,0,0,0,.88.33l1,.3a6.05,6.05,0,0,1,2.81,1.71,4.22,4.22,0,0,1,.89,2.79,5.43,5.43,0,0,1-.39,2.1,4.37,4.37,0,0,1-1.14,1.61,5.24,5.24,0,0,1-1.84,1,7.65,7.65,0,0,1-2.47.37,9.08,9.08,0,0,1-5.3-1.7l1.68-3.16a6.79,6.79,0,0,0,1.74,1.16,4.17,4.17,0,0,0,1.7.38,2,2,0,0,0,1.43-.44,1.36,1.36,0,0,0,.35-1.59,1.27,1.27,0,0,0-.4-.46,3.19,3.19,0,0,0-.73-.39q-.45-.18-1.09-.4t-1.49-.53a4.68,4.68,0,0,1-1.3-.77,3.56,3.56,0,0,1-.92-1.21,4.27,4.27,0,0,1-.35-1.85,5.34,5.34,0,0,1,.37-2,4.5,4.5,0,0,1,1-1.56,4.62,4.62,0,0,1,1.64-1A6.2,6.2,0,0,1,168,200a9.53,9.53,0,0,1,2.34.31,10.37,10.37,0,0,1,2.34.91Z"/><path class="cls-3" d="M181.61,203.75v11.76h-3.92V203.75h-3.22v-3.32h10.36v3.32Z"/><path class="cls-3" d="M190.15,208.27v7.24h-3.62v-7.24h-1.3v-3h1.3v-1.54a7,7,0,0,1,.24-2,3.63,3.63,0,0,1,.64-1.19,4.68,4.68,0,0,1,1-1,5,5,0,0,1,1.27-.62,4.34,4.34,0,0,1,1.34-.22,3.43,3.43,0,0,1,.85.1,5,5,0,0,1,.79.28v3.16A4,4,0,0,0,192,202a2.3,2.3,0,0,0-.65-.09,1.56,1.56,0,0,0-.45.07,1,1,0,0,0-.43.29,1.23,1.23,0,0,0-.27.63,6.9,6.9,0,0,0-.07,1.11v1.28h2.54v3Z"/><path class="cls-3" d="M197.67,205.25V211a1.84,1.84,0,1,0,3.68,0v-5.78H205v6.48a3.67,3.67,0,0,1-1.37,3.12,8.56,8.56,0,0,1-8.18,0,3.67,3.67,0,0,1-1.37-3.12v-6.48Z"/><path class="cls-3" d="M211.05,198.91v16.6h-3.62v-16.6Z"/><path class="cls-3" d="M203.38,168.18h-6.72l-1.08,3.14h-5l6.89-18.1h5.14l6.89,18.1h-5Zm-1.25-3.58-2.11-6-2.11,6Z"/><path class="cls-3" d="M216.24,171.32h-4.7v-18.1H219a6.4,6.4,0,0,1,4.67,1.58,7,7,0,0,1,0,8.93,6.41,6.41,0,0,1-4.67,1.58h-2.78Zm0-9.79h1.56q2.59,0,2.59-2.26T217.8,157h-1.56Z"/><path class="cls-3" d="M232.52,153.23v18.1h-4.7v-18.1Z"/><path class="cls-3" d="M254.4,157.86a5.81,5.81,0,0,0-1.54-.92,4.08,4.08,0,0,0-1.49-.3,2.41,2.41,0,0,0-1.49.43,1.35,1.35,0,0,0-.58,1.13,1.12,1.12,0,0,0,.29.79,2.51,2.51,0,0,0,.76.54,6.36,6.36,0,0,0,1.06.4l1.16.36a7.27,7.27,0,0,1,3.37,2.05,5.07,5.07,0,0,1,1.07,3.35,6.52,6.52,0,0,1-.47,2.52,5.25,5.25,0,0,1-1.37,1.93,6.29,6.29,0,0,1-2.21,1.25,9.2,9.2,0,0,1-3,.44,10.9,10.9,0,0,1-6.36-2l2-3.79a8.19,8.19,0,0,0,2.09,1.39,5,5,0,0,0,2,.46,2.44,2.44,0,0,0,1.72-.53,1.64,1.64,0,0,0,.42-1.91,1.53,1.53,0,0,0-.48-.55,3.84,3.84,0,0,0-.88-.47q-.54-.22-1.31-.48t-1.79-.64a5.64,5.64,0,0,1-1.56-.92,4.3,4.3,0,0,1-1.1-1.45,5.13,5.13,0,0,1-.42-2.22,6.41,6.41,0,0,1,.44-2.44,5.42,5.42,0,0,1,1.25-1.87,5.56,5.56,0,0,1,2-1.21,7.44,7.44,0,0,1,2.6-.43,11.4,11.4,0,0,1,2.81.37,12.38,12.38,0,0,1,2.81,1.09Z"/><path class="cls-3" d="M263.48,165.9q0,2.81,2.64,2.81a2.36,2.36,0,0,0,2.14-1.15h4.2q-1.27,4.22-6.36,4.22a8.36,8.36,0,0,1-2.86-.47A6.38,6.38,0,0,1,261,170a5.93,5.93,0,0,1-1.43-2.06,6.87,6.87,0,0,1-.5-2.69,7.61,7.61,0,0,1,.48-2.77,5.84,5.84,0,0,1,1.37-2.1,6.05,6.05,0,0,1,2.15-1.33,8.12,8.12,0,0,1,2.84-.47,7.94,7.94,0,0,1,2.81.47,5.68,5.68,0,0,1,2.11,1.36,5.9,5.9,0,0,1,1.32,2.17,8.62,8.62,0,0,1,.46,2.89v.46Zm5.09-2.52a2.61,2.61,0,0,0-.89-1.46,2.75,2.75,0,0,0-3.28,0,2.39,2.39,0,0,0-.8,1.49Z"/><path class="cls-3" d="M275.09,159h4.34v2a5,5,0,0,1,1.7-1.69,4.59,4.59,0,0,1,2.35-.59h.37a2.73,2.73,0,0,1,.47,0v4.15a4.13,4.13,0,0,0-1.87-.43,2.8,2.8,0,0,0-2.27.9,4,4,0,0,0-.76,2.63v5.28h-4.34Z"/><path class="cls-3" d="M290.43,159l2.93,6.31,3-6.31h4.85l-6.41,12.31h-2.9L285.53,159Z"/><path class="cls-3" d="M306,165.9q0,2.81,2.64,2.81a2.36,2.36,0,0,0,2.14-1.15H315q-1.27,4.22-6.36,4.22a8.36,8.36,0,0,1-2.86-.47,6.38,6.38,0,0,1-2.22-1.33,5.93,5.93,0,0,1-1.43-2.06,6.87,6.87,0,0,1-.5-2.69,7.61,7.61,0,0,1,.48-2.77,5.84,5.84,0,0,1,1.37-2.1,6.05,6.05,0,0,1,2.15-1.33,8.12,8.12,0,0,1,2.84-.47,7.94,7.94,0,0,1,2.81.47,5.68,5.68,0,0,1,2.11,1.36,5.9,5.9,0,0,1,1.32,2.17,8.62,8.62,0,0,1,.46,2.89v.46Zm5.09-2.52a2.61,2.61,0,0,0-.89-1.46,2.75,2.75,0,0,0-3.28,0,2.39,2.39,0,0,0-.8,1.49Z"/><path class="cls-3" d="M317.62,159H322v2a5,5,0,0,1,1.7-1.69,4.59,4.59,0,0,1,2.35-.59h.37a2.72,2.72,0,0,1,.47,0v4.15a4.12,4.12,0,0,0-1.87-.43,2.8,2.8,0,0,0-2.27.9A4,4,0,0,0,322,166v5.28h-4.34Z"/><rect class="cls-1" x="535.5" y="151.02" width="238" height="73"/><path class="cls-3" d="M574.11,193.11h-6.72l-1.08,3.14h-5l6.89-18.1h5.14l6.89,18.1h-5Zm-1.25-3.58-2.11-6-2.11,6Z"/><path class="cls-3" d="M586.22,183.95v6.94a2.21,2.21,0,1,0,4.42,0v-6.94H595v7.78a4.4,4.4,0,0,1-1.64,3.74,10.28,10.28,0,0,1-9.82,0,4.4,4.4,0,0,1-1.64-3.74v-7.78Z"/><path class="cls-3" d="M602.78,187.57v8.69h-4.34v-8.69H597v-3.62h1.44v-3.7h4.34v3.7h2.47v3.62Z"/><path class="cls-3" d="M607.44,176.34h4.34v9.17a4.75,4.75,0,0,1,1.8-1.45,5.63,5.63,0,0,1,2.14-.37,4.56,4.56,0,0,1,3.52,1.28,4.91,4.91,0,0,1,1.19,3.47v7.82h-4.34V190a6.45,6.45,0,0,0-.14-1.51,1.77,1.77,0,0,0-.48-.89,2,2,0,0,0-1.39-.5,2.15,2.15,0,0,0-1.69.66,2.74,2.74,0,0,0-.59,1.88v6.58h-4.34Z"/><path class="cls-3" d="M627.29,190.83q0,2.81,2.64,2.81a2.36,2.36,0,0,0,2.14-1.15h4.2q-1.27,4.22-6.36,4.22a8.36,8.36,0,0,1-2.86-.47,6.37,6.37,0,0,1-2.22-1.33,5.93,5.93,0,0,1-1.43-2.06,6.88,6.88,0,0,1-.5-2.69,7.6,7.6,0,0,1,.48-2.77,5.82,5.82,0,0,1,1.37-2.1,6,6,0,0,1,2.15-1.33,8.11,8.11,0,0,1,2.84-.47,7.94,7.94,0,0,1,2.81.47,5.68,5.68,0,0,1,2.11,1.36,5.9,5.9,0,0,1,1.32,2.17,8.62,8.62,0,0,1,.46,2.89v.46Zm5.09-2.52a2.62,2.62,0,0,0-.89-1.46,2.75,2.75,0,0,0-3.28,0,2.39,2.39,0,0,0-.8,1.49Z"/><path class="cls-3" d="M638.9,183.95h4.34v1.56a4.75,4.75,0,0,1,1.8-1.45,5.63,5.63,0,0,1,2.14-.37,5.35,5.35,0,0,1,2.22.42,4.44,4.44,0,0,1,1.57,1.19,3.42,3.42,0,0,1,.72,1.39,7.26,7.26,0,0,1,.19,1.75v7.82h-4.34V190a6.71,6.71,0,0,0-.13-1.48,1.83,1.83,0,0,0-.47-.9,1.65,1.65,0,0,0-.65-.41,2.41,2.41,0,0,0-.77-.12,2.15,2.15,0,0,0-1.69.66,2.74,2.74,0,0,0-.59,1.88v6.58H638.9Z"/><path class="cls-3" d="M659.69,187.57v8.69h-4.34v-8.69H653.9v-3.62h1.44v-3.7h4.34v3.7h2.47v3.62Z"/><path class="cls-3" d="M663.84,179.22a2.37,2.37,0,0,1,.19-.95,2.49,2.49,0,0,1,1.31-1.31,2.43,2.43,0,0,1,1.9,0,2.49,2.49,0,0,1,1.31,1.31,2.44,2.44,0,0,1,0,1.9,2.49,2.49,0,0,1-1.31,1.31,2.43,2.43,0,0,1-1.9,0,2.49,2.49,0,0,1-1.31-1.31A2.36,2.36,0,0,1,663.84,179.22Zm4.63,4.73v12.31h-4.34V183.95Z"/><path class="cls-3" d="M680.74,187.93a4,4,0,0,0-2.28-.77,3.1,3.1,0,0,0-1.16.22,2.87,2.87,0,0,0-.95.61,2.79,2.79,0,0,0-.64.94,3.09,3.09,0,0,0-.23,1.21,3,3,0,0,0,.23,1.19,2.9,2.9,0,0,0,.62.94,2.74,2.74,0,0,0,.95.61,3.2,3.2,0,0,0,1.18.22,3.59,3.59,0,0,0,2.28-.84v3.7a7.69,7.69,0,0,1-3,.7,7.2,7.2,0,0,1-2.56-.46,6.4,6.4,0,0,1-3.61-3.35,6.22,6.22,0,0,1-.55-2.65,6.62,6.62,0,0,1,.53-2.68,6.41,6.41,0,0,1,1.44-2.09,6.52,6.52,0,0,1,2.17-1.37,7.35,7.35,0,0,1,2.7-.49,6.47,6.47,0,0,1,2.93.67Z"/><path class="cls-3" d="M692.71,183.95h4.37v12.31h-4.37v-1.37a4.56,4.56,0,0,1-3.77,1.75,6.11,6.11,0,0,1-2.47-.49,5.93,5.93,0,0,1-2-1.38,6.36,6.36,0,0,1-1.31-2.09,7.15,7.15,0,0,1-.47-2.62,7,7,0,0,1,.46-2.51,6.44,6.44,0,0,1,1.27-2.08,5.91,5.91,0,0,1,4.44-1.92,5,5,0,0,1,3.82,1.61Zm-5.47,6.12a2.88,2.88,0,0,0,.8,2,2.64,2.64,0,0,0,.89.6,2.85,2.85,0,0,0,1.12.22,2.79,2.79,0,0,0,1.09-.22,2.64,2.64,0,0,0,.89-.6,3.1,3.1,0,0,0,.6-.89,2.6,2.6,0,0,0,.23-1.08,2.69,2.69,0,0,0-.23-1.09,3.06,3.06,0,0,0-.6-.9,2.65,2.65,0,0,0-.89-.6,2.81,2.81,0,0,0-1.09-.22,2.87,2.87,0,0,0-1.12.22,2.65,2.65,0,0,0-.89.6,2.94,2.94,0,0,0-.59.88A2.62,2.62,0,0,0,687.24,190.06Z"/><path class="cls-3" d="M704.88,187.57v8.69h-4.34v-8.69h-1.44v-3.62h1.44v-3.7h4.34v3.7h2.47v3.62Z"/><path class="cls-3" d="M709,179.22a2.37,2.37,0,0,1,.19-.95,2.49,2.49,0,0,1,1.31-1.31,2.43,2.43,0,0,1,1.9,0,2.49,2.49,0,0,1,1.31,1.31,2.44,2.44,0,0,1,0,1.9,2.49,2.49,0,0,1-1.31,1.31,2.43,2.43,0,0,1-1.9,0,2.49,2.49,0,0,1-1.31-1.31A2.36,2.36,0,0,1,709,179.22Zm4.63,4.73v12.31h-4.34V183.95Z"/><path class="cls-3" d="M716.16,190a6,6,0,0,1,.55-2.56,6.28,6.28,0,0,1,1.54-2.06,7.31,7.31,0,0,1,2.34-1.38,8.45,8.45,0,0,1,3-.5,8.58,8.58,0,0,1,2.94.49,7.28,7.28,0,0,1,2.35,1.37,6.15,6.15,0,0,1,1.55,2.09,6.4,6.4,0,0,1,.55,2.68,6.26,6.26,0,0,1-.56,2.68,6.35,6.35,0,0,1-1.55,2.09,6.92,6.92,0,0,1-2.36,1.36,9,9,0,0,1-3,.48,8.64,8.64,0,0,1-2.93-.48,6.75,6.75,0,0,1-2.32-1.37,6.34,6.34,0,0,1-1.52-2.12A6.66,6.66,0,0,1,716.16,190Zm4.58,0a2.78,2.78,0,0,0,.23,1.14,3,3,0,0,0,.6.9,2.64,2.64,0,0,0,.89.6,2.87,2.87,0,0,0,2.18,0,2.64,2.64,0,0,0,.89-.6,3.05,3.05,0,0,0,.6-.9,2.74,2.74,0,0,0,.23-1.12,2.68,2.68,0,0,0-.23-1.09,3.06,3.06,0,0,0-.6-.9,2.65,2.65,0,0,0-.89-.6,2.87,2.87,0,0,0-2.18,0,2.65,2.65,0,0,0-.89.6,3.08,3.08,0,0,0-.6.89A2.59,2.59,0,0,0,720.74,190Z"/><path class="cls-3" d="M733.44,183.95h4.34v1.56a4.75,4.75,0,0,1,1.8-1.45,5.63,5.63,0,0,1,2.14-.37,5.35,5.35,0,0,1,2.22.42,4.44,4.44,0,0,1,1.57,1.19,3.42,3.42,0,0,1,.72,1.39,7.26,7.26,0,0,1,.19,1.75v7.82h-4.34V190a6.71,6.71,0,0,0-.13-1.48,1.83,1.83,0,0,0-.47-.9,1.65,1.65,0,0,0-.65-.41,2.41,2.41,0,0,0-.77-.12,2.15,2.15,0,0,0-1.69.66,2.74,2.74,0,0,0-.59,1.88v6.58h-4.34Z"/><line class="cls-8" x1="428.5" y1="187.52" x2="519.6" y2="187.52"/><polygon class="cls-9" points="530.8 187.52 519.61 183.32 519.61 191.72 530.8 187.52"/><polygon class="cls-10" points="530.8 187.52 519.61 183.32 519.61 191.72 530.8 187.52"/></svg>